<?xml version="1.0" encoding="UTF-8"?>
<svg id="Artwork" xmlns="http://www.w3.org/2000/svg" viewBox="0 0 150 150">
  <defs>
    <style>
      .cls-1 {
        fill: #1b7fc4;
      }

      .cls-2 {
        fill: #0c6eb4;
      }

      .cls-3 {
        fill: #13539b;
      }

      .cls-4 {
        fill: #78c5e8;
      }

      .cls-5 {
        fill: #359edd;
      }

      .cls-6 {
        fill: #2761ad;
      }

      .cls-7 {
        fill: #0598d9;
      }

      .cls-8 {
        fill: #5ccaf5;
      }

      .cls-9 {
        fill: #0895db;
      }

      .cls-10 {
        fill: #155eab;
      }

      .cls-11 {
        fill: #05a1e6;
      }

      .cls-12 {
        fill: #3091c3;
      }

      .cls-13 {
        fill: #16579d;
      }

      .cls-14 {
        fill: #6ec9ec;
      }
    </style>
  </defs>
  <g>
    <path class="cls-8" d="M52.05,41.08c4.87,14.89,6.71,41.46,20.95,41.46,1.08,0,2.18-.11,3.28-.32-12.95-3.02-14.48-29.3-22.38-42.9-.63.57-1.25,1.16-1.86,1.76"/>
    <path class="cls-7" d="M53.91,39.32c7.9,13.61,9.43,39.88,22.38,42.9,1.02-.19,2.04-.47,3.06-.83-11.62-5.69-14.83-31.21-23.8-43.49-.55.46-1.1.93-1.63,1.42"/>
    <path class="cls-3" d="M65.29,31.22c-1.08,0-2.18.11-3.28.32-2.88.54-5.81,1.78-8.76,3.66.81.8,1.57,1.71,2.29,2.7,3-2.49,5.98-4.33,8.95-5.44,1.08-.41,2.2-.72,3.34-.93-.83-.21-1.69-.31-2.55-.31"/>
    <path class="cls-8" d="M88.41,76.14c1.24-.99,2.43-2.03,3.57-3.13-4.95-14.82-6.72-41.77-21.06-41.77-1.03,0-2.06.1-3.09.29,13.06,3.25,14.74,31.67,20.58,44.61"/>
    <path class="cls-12" d="M67.83,31.53c-.83-.21-1.69-.31-2.55-.31l5.64.02c-1.03,0-2.06.1-3.09.29"/>
    <path class="cls-10" d="M88.16,79.29c-.56-.53-1.09-1.12-1.62-1.75-2.41,1.71-4.82,3-7.2,3.85.85.42,1.75.73,2.69.92.75.15,1.52.23,2.29.23,2.68,0,4.8-.32,6.6-1.18-.99-.54-1.9-1.23-2.76-2.06"/>
    <path class="cls-7" d="M64.49,32.46c11.7,6.12,12.72,33.83,22.05,45.08.64-.45,1.26-.92,1.87-1.4-5.84-12.95-7.52-41.37-20.57-44.61-1.14.21-2.26.53-3.34.93"/>
    <path class="cls-1" d="M55.54,37.9c8.97,12.28,12.18,37.8,23.8,43.49,2.39-.84,4.79-2.14,7.2-3.85-9.34-11.25-10.35-38.96-22.05-45.08-2.97,1.1-5.95,2.94-8.95,5.43"/>
    <path class="cls-8" d="M46.31,40.72c-1.41,3.18-2.84,7.36-4.58,12.81,3.45-4.87,6.9-9.06,10.32-12.45-.47-1.45-.98-2.79-1.52-3.98-1.47,1.13-2.88,2.34-4.22,3.62"/>
    <path class="cls-3" d="M51.77,36.18c-.42.3-.84.6-1.25.92.55,1.19,1.05,2.53,1.52,3.98.61-.6,1.23-1.18,1.86-1.76-.66-1.14-1.37-2.19-2.13-3.13"/>
    <path class="cls-3" d="M53.25,35.2c-.5.32-.99.64-1.47.98.77.94,1.47,1.99,2.13,3.14.53-.48,1.08-.96,1.63-1.42-.72-.99-1.49-1.9-2.3-2.7"/>
    <path class="cls-8" d="M133.05,30.09c-6.62,25.52-20.44,46.01-32.03,51.18h-.02c-.21.1-.42.18-.63.27-.03.02-.05.02-.08.03-.06.02-.12.04-.18.07-.03.02-.05.02-.08.03-.1.04-.19.06-.29.1-.04.02-.08.03-.12.04-.05.02-.09.03-.14.05-.04.02-.09.03-.14.05-.04.02-.09.02-.12.04-.09.02-.16.05-.25.07-.04,0-.07.02-.1.03-.05.02-.11.03-.17.05-.04.02-.07.02-.11.03-.06.02-.12.03-.18.05l-.22.05c.53.2,1.09.29,1.66.29,10.99,0,22.07-19.69,40.4-52.43h-7.2,0Z"/>
    <path class="cls-8" d="M39.35,32.26s.02-.02.02-.02c0,0,.02,0,.03-.02h.01c.06-.02.12-.05.18-.07.02,0,.02,0,.04-.02.02,0,.03-.02.05-.02.06-.02.13-.05.19-.07h.01c.15-.04.28-.1.42-.15.02,0,.04-.02.06-.02.06-.02.12-.04.18-.05.03-.02.06-.02.08-.03.06-.02.12-.04.18-.05.03,0,.05-.02.07-.02.2-.06.4-.11.6-.16.03,0,.05-.02.08-.02.06-.02.11-.03.18-.04.03-.02.06-.02.09-.03.06-.02.12-.02.18-.03h.04c.12-.02.25-.05.37-.07h.07c.06-.02.11-.02.17-.03.03,0,.06-.02.1-.02.05,0,.11-.02.16-.02.03,0,.06,0,.09-.02.13-.02.26-.02.4-.03-.39-.04-.78-.06-1.17-.06-12.37,0-29.42,22.96-37.1,52.69h1.48c2.46-4.38,4.67-8.53,6.68-12.42,5.38-21.06,16.33-35.42,26.06-39.23"/>
    <path class="cls-14" d="M46.31,40.72c1.34-1.28,2.75-2.49,4.22-3.62-.3-.66-.63-1.31-1-1.94-1.13,1.37-2.17,3.19-3.21,5.56"/>
    <path class="cls-4" d="M47.33,32.43c.81.68,1.53,1.61,2.19,2.73.21-.26.42-.49.64-.72-.92-.86-1.91-1.56-2.99-2.09.04.02.09.04.13.06,0,0,.02.02.02.02"/>
    <path class="cls-5" d="M13.28,71.48c11.28-21.74,16.63-35.5,26.06-39.23-9.73,3.81-20.69,18.17-26.06,39.23"/>
    <path class="cls-14" d="M50.16,34.44c-.22.22-.43.46-.64.72.37.63.71,1.28,1.01,1.94.41-.31.83-.62,1.24-.92-.5-.62-1.04-1.2-1.61-1.74"/>
    <path class="cls-7" d="M18.4,83.81c-.07.02-.14.02-.2.02h-.04c-.06,0-.12.02-.17.02h-.03c-.14.02-.28.02-.41.03h-.04c11.42-.32,16.64-6.04,19.23-14.33,1.97-6.29,3.59-11.58,5-16.03-4.78,6.73-9.59,14.76-14.42,23.75-2.33,4.33-5.87,6.14-8.91,6.53"/>
    <path class="cls-9" d="M18.4,83.8c3.04-.39,6.58-2.19,8.91-6.53,4.83-8.99,9.64-17.01,14.42-23.75,1.74-5.46,3.17-9.63,4.58-12.81-9.52,9.07-19.09,24.14-27.91,43.09"/>
    <path class="cls-11" d="M13.28,71.48c-2.02,3.89-4.23,8.04-6.68,12.42h4.3c.54-4.18,1.34-8.33,2.38-12.42"/>
    <path class="cls-1" d="M42.99,31.32s-.06.02-.09.02c-.05.02-.11.02-.16.02-.03,0-.06,0-.1.02-.06.02-.11.02-.17.03-.03,0-.05,0-.07.02-.12.02-.25.04-.37.06h-.04c-.06.02-.12.03-.18.04-.03.02-.06.02-.09.02-.06.02-.12.02-.17.04-.03.02-.05.02-.08.02-.2.05-.4.1-.6.16-.02,0-.04.02-.07.02-.06.02-.12.03-.18.05-.03.02-.06.02-.08.02-.06.02-.12.03-.18.05-.02,0-.04.02-.06.02-.14.05-.28.1-.42.15-.06.02-.13.04-.19.07-.03.02-.05.02-.08.03-.06.02-.12.04-.18.07-.02.02-.04.02-.06.03-9.44,3.72-14.78,17.48-26.06,39.23-1.04,4.09-1.84,8.24-2.38,12.42h.6c1.7,0,2.18-.02,4.14-.02h1.9c.13-.02.27-.02.41-.03h.03c.06,0,.12-.02.17-.02h.04c.06,0,.13-.02.2-.02,8.82-18.95,18.38-34.02,27.91-43.09,1.05-2.37,2.08-4.19,3.21-5.56-.66-1.12-1.38-2.05-2.19-2.73s-.02,0-.02-.02c-.05-.02-.09-.04-.13-.06-.05-.02-.09-.04-.13-.07-.04-.02-.09-.04-.13-.06-.06-.02-.1-.04-.15-.06-.04-.02-.08-.04-.12-.05-.08-.03-.17-.07-.25-.1-.04-.02-.07-.03-.11-.04-.06-.02-.13-.05-.19-.07-.03-.02-.06-.02-.1-.03-.09-.03-.18-.06-.26-.09h-.02c-.1-.03-.2-.06-.3-.09-.02-.02-.04-.02-.07-.02-.09-.02-.17-.05-.25-.07-.02,0-.04-.02-.06-.02-.21-.05-.42-.1-.63-.14-.02,0-.04-.02-.06-.02-.09-.02-.18-.03-.27-.04-.02-.02-.04-.02-.05-.02-.11-.02-.21-.03-.32-.04h-.06c-.09-.02-.17-.02-.25-.03-.14.02-.27.02-.4.04"/>
    <path class="cls-7" d="M107.2,44.22c-2.17,6.95-3.93,12.69-5.46,17.41,5.96-8.2,11.82-18.51,17.41-30.41-6.52,2.05-9.99,6.73-11.95,13"/>
    <path class="cls-7" d="M101.93,80.84c-.3.16-.61.3-.91.43,11.59-5.17,25.41-25.66,32.03-51.18h-1.34c-15.2,27.16-20.09,45.34-29.78,50.75"/>
    <path class="cls-7" d="M94.37,78.55c2.52-3.08,4.57-8.31,7.38-16.93-3.23,4.44-6.49,8.26-9.75,11.37t-.02.03c.71,2.13,1.49,4.01,2.38,5.53"/>
    <path class="cls-10" d="M94.37,78.55c-.86,1.05-1.77,1.84-2.78,2.44-.22.13-.45.25-.67.36,1.1.59,2.3.97,3.54,1.11.19.02.38.04.58.05h.04c.09,0,.18,0,.28.02h.94s.07,0,.11-.02c.07,0,.14,0,.21-.02h.1c.07,0,.15-.02.23-.02h.02s.05-.02.07-.02c.08-.02.16-.02.24-.04h.07c.09-.02.18-.03.27-.05h.04c.18-.04.36-.07.54-.11-1.5-.55-2.75-1.84-3.82-3.68"/>
    <path class="cls-13" d="M73.01,82.53c1.08,0,2.18-.11,3.28-.32,1.02-.18,2.04-.47,3.06-.82.85.42,1.75.73,2.68.92.75.15,1.52.23,2.29.23h-11.31Z"/>
    <path class="cls-13" d="M84.32,82.53c2.68,0,4.8-.32,6.6-1.18,1.1.59,2.3.97,3.54,1.12.19.02.38.04.58.05h.04c.09,0,.18,0,.28.02h.32-11.36,0Z"/>
    <path class="cls-6" d="M95.67,82.53h.62s.07,0,.11-.02c.07,0,.14,0,.21-.02h.1c.07,0,.15-.02.22-.02h.02s.05-.02.07-.02c.08-.02.16-.02.24-.04.03,0,.05,0,.07-.02.09-.02.18-.03.27-.04h.04c.18-.04.36-.07.54-.11.53.2,1.09.29,1.66.29l-4.18.02v-.02Z"/>
    <path class="cls-10" d="M91.99,73.03v-.02c-1.14,1.1-2.33,2.14-3.57,3.13-.61.48-1.23.95-1.87,1.4.52.63,1.06,1.21,1.62,1.75.85.83,1.76,1.52,2.76,2.06.23-.11.45-.23.67-.36,1.01-.59,1.92-1.39,2.78-2.44-.89-1.52-1.67-3.4-2.38-5.53"/>
    <path class="cls-1" d="M127.46,30.09h-6.75c-.36.02-.72.03-1.07.05-.17.35-.33.71-.5,1.07-5.59,11.9-11.45,22.21-17.41,30.41-2.8,8.62-4.86,13.85-7.38,16.93,1.08,1.84,2.33,3.13,3.82,3.68.04-.02.08-.02.12-.03h.02s.05-.02.08-.02c.06-.02.13-.03.19-.05.04-.02.07-.02.11-.03.06-.02.12-.03.17-.04.04-.02.07-.02.1-.03.09-.03.17-.05.25-.07.04-.02.08-.03.12-.04.05-.02.1-.03.14-.05.05-.02.1-.03.14-.05.04-.02.08-.03.12-.04.1-.04.19-.06.29-.1.03,0,.05-.02.08-.03.06-.02.12-.04.18-.07.02-.02.05-.02.08-.03.2-.09.41-.17.63-.27h.02c.31-.14.61-.28.91-.43,9.69-5.41,14.58-23.59,29.78-50.75h-4.25,0Z"/>
    <path class="cls-4" d="M43.39,31.28s.05,0,.07.02c.06,0,.12,0,.18.02h.06c.11.02.21.03.32.04.02,0,.04,0,.05.02.09.02.18.03.27.05.02,0,.05.02.07.02.21.04.42.09.63.14.02,0,.04.02.06.02.09.02.17.05.25.07.03,0,.05.02.07.02.1.03.2.05.3.09,0,0,.01,0,.02.02.09.03.17.06.26.09.04.02.07.02.1.03.06.03.13.05.19.08.04,0,.07.02.11.04.08.04.16.07.25.1.04.02.08.04.12.05.05.02.1.05.15.06.04.02.09.04.13.06.05.02.09.04.13.07,1.08.53,2.07,1.24,2.99,2.09.33-.35.68-.67,1.06-.96-2.01-1.43-4.29-2.24-6.91-2.24-.3,0-.61.02-.92.04"/>
    <path class="cls-14" d="M50.16,34.44c.58.54,1.12,1.12,1.61,1.74.48-.34.97-.67,1.47-.98-.63-.63-1.3-1.2-2.03-1.72-.38.29-.73.62-1.06.96"/>
    <path class="cls-8" d="M43.39,31.28c.31-.03.61-.04.92-.04,2.63,0,4.9.81,6.91,2.24,2.12-1.67,4.69-2.26,8.25-2.26h-17.25c.4,0,.79.02,1.17.06"/>
    <path class="cls-14" d="M59.47,31.22c-3.56,0-6.13.58-8.25,2.26.72.51,1.4,1.09,2.03,1.72,2.95-1.88,5.88-3.12,8.76-3.66,1.08-.21,2.18-.31,3.28-.31h-5.82Z"/>
    <path class="cls-8" d="M101.74,61.63c1.53-4.72,3.29-10.46,5.46-17.41,1.96-6.27,5.43-10.95,11.95-13,.17-.35.33-.71.5-1.06-10.62.64-15.59,6.04-18.09,14.04-4.37,13.97-7.02,23.03-9.57,28.8,3.26-3.11,6.51-6.93,9.74-11.37"/>
  </g>
  <g>
    <g>
      <path class="cls-2" d="M78.85,115.37c-.56,0-1.04.2-1.44.61-.39.4-.59.89-.59,1.47s.2,1.05.59,1.46c.39.41.87.62,1.44.62s1.07-.21,1.47-.62c.41-.41.61-.9.61-1.46s-.2-1.05-.61-1.46c-.41-.41-.9-.62-1.47-.62Z"/>
      <polygon class="cls-2" points="103.62 114.77 89.45 92.71 85.44 92.71 85.44 119.11 88.53 119.11 88.53 96.85 102.94 119.11 106.7 119.11 106.7 119.11 106.7 92.71 103.62 92.71 103.62 114.77"/>
      <polygon class="cls-2" points="115.63 116.31 115.63 107.09 125.17 107.09 125.17 104.29 115.63 104.29 115.63 95.51 125.92 95.51 125.92 92.71 112.54 92.71 112.54 119.11 126.53 119.11 126.53 116.31 115.63 116.31"/>
      <polygon class="cls-2" points="129.44 92.71 129.44 95.51 137.05 95.51 137.05 119.11 140.15 119.11 140.15 95.51 147.75 95.51 147.75 92.71 129.44 92.71"/>
    </g>
    <g>
      <path class="cls-2" d="M20.02,112.47l-1.85,6.68h-6.1l7.95-26.01h7.72l8.06,26.01h-6.33l-2.01-6.68h-7.45ZM26.62,108.07l-1.62-5.52c-.46-1.54-.93-3.47-1.31-5.02h-.08c-.39,1.54-.77,3.51-1.2,5.02l-1.54,5.52h5.75Z"/>
      <path class="cls-2" d="M38.23,113.08c1.58.81,4.01,1.62,6.52,1.62,2.7,0,4.13-1.12,4.13-2.82s-1.23-2.55-4.36-3.67c-4.32-1.5-7.14-3.9-7.14-7.68,0-4.44,3.7-7.83,9.84-7.83,2.93,0,5.09.62,6.64,1.31l-1.31,4.75c-1.04-.5-2.89-1.23-5.44-1.23s-3.78,1.16-3.78,2.51c0,1.66,1.47,2.39,4.82,3.67,4.59,1.7,6.75,4.09,6.75,7.76,0,4.36-3.36,8.06-10.5,8.06-2.97,0-5.9-.77-7.37-1.58l1.2-4.86Z"/>
      <path class="cls-2" d="M59.01,93.48c1.81-.31,4.36-.54,7.95-.54s6.21.69,7.95,2.08c1.66,1.31,2.78,3.47,2.78,6.02s-.85,4.71-2.39,6.17c-2.01,1.89-4.98,2.74-8.45,2.74-.77,0-1.47-.04-2.01-.12v9.3h-5.83v-25.66ZM64.84,105.29c.5.12,1.12.15,1.97.15,3.13,0,5.05-1.58,5.05-4.24,0-2.39-1.66-3.82-4.59-3.82-1.2,0-2.01.12-2.43.23v7.68Z"/>
    </g>
  </g>
  <path class="cls-2" d="M117.33,78.81h-1.2v3.74h-.49v-3.74h-1.21v-.45h2.9v.45ZM122.26,82.55h-.49v-2.81c0-.22.02-.49.04-.81-.05.19-.09.32-.13.41l-1.43,3.22h-.24l-1.43-3.19c-.04-.09-.08-.23-.13-.43h-.02c.02.17.02.44.02.82v2.81h-.47v-4.19h.65l1.28,2.92c.1.22.16.39.19.5h.02c.09-.23.15-.4.2-.52l1.31-2.91h.62v4.19h0Z"/>
</svg>