<?xml version="1.0" encoding="UTF-8"?>
<svg id="Artwork" xmlns="http://www.w3.org/2000/svg" viewBox="0 0 150 150">
  <defs>
    <style>
      .cls-1 {
        fill: #6a1577;
      }

      .cls-2 {
        fill: #994992;
      }

      .cls-3 {
        fill: #242a5f;
      }

      .cls-4 {
        fill: #803083;
      }
    </style>
  </defs>
  <path class="cls-2" d="M98.85,60.96l-20.57,11.85-20.52,11.81c-2-3.54-3.06-7.55-3.06-11.62,0-13.1,10.62-23.71,23.72-23.71h.27c8.59.09,16.07,4.76,20.16,11.67Z"/>
  <path class="cls-2" d="M140.57,36.94l-20.99,12.09h-.01c-4.13-7.07-10.02-12.98-17.08-17.13-7.07-4.14-15.29-6.52-24.07-6.52-26.3,0-47.62,21.32-47.62,47.62,0,8.57,2.26,16.61,6.23,23.56l-21.51,12.38c-1-1.81-1.5-3.9-1.5-6.27.01-19.78,0-39.56.01-59.34,0-4.8,2.03-8.5,6.2-10.91,10.13-5.87,44.12-25.34,50.91-29.35,4.56-2.69,9.02-2.79,13.62-.13,17.05,9.84,34.12,19.65,51.18,29.48,2.07,1.2,3.61,2.71,4.63,4.52Z"/>
  <path class="cls-1" d="M140.65,108.94c-1.03,1.86-2.59,3.41-4.71,4.64-17.05,9.83-34.13,19.64-51.18,29.48-4.6,2.66-9.06,2.56-13.62-.13-6.79-4.01-40.78-23.48-50.91-29.35-2.12-1.22-3.68-2.78-4.71-4.64l21.51-12.38s.05.09.07.14c8.22,14.3,23.65,23.92,41.32,23.92h.53c17.41-.19,32.58-9.73,40.73-23.83l20.97,12.15Z"/>
  <path class="cls-1" d="M98.98,84.8c-4.09,7.11-11.76,11.91-20.56,11.91s-16.5-4.81-20.59-11.95c-.02-.04-.05-.09-.07-.14l20.52-11.81,20.7,11.99Z"/>
  <rect class="cls-4" x="115.23" y="69.43" width="6.76" height="6.75"/>
  <path class="cls-4" d="M142.14,59.74v-16.4c0-2.43-.52-4.57-1.57-6.4l-20.99,12.09.08.14s-.06-.09-.09-.14l-20.72,11.93-20.57,11.85,20.7,11.99,20.7,11.99,20.97,12.15c1-1.81,1.5-3.91,1.5-6.28v-35.56c0-2.48-.01-4.95-.01-7.36ZM132.12,69.43h-6.76v6.75h6.76v3.38h-6.76v6.76h-3.37v-6.76h-6.76v6.76h-3.37v-6.76h-6.76v-3.38h6.76v-6.75h-6.76v-3.38h6.76v-6.75h3.37v6.75h6.76v-6.75h3.37v6.75h6.76v3.38Z"/>
  <polygon class="cls-3" points="119.57 49.03 119.57 49.03 119.58 49.03 119.58 49.03 119.57 49.03"/>
  <path class="cls-3" d="M119.66,49.17l-.08-.14h0s.06.09.08.14Z"/>
</svg>