<?xml version="1.0" encoding="UTF-8"?>
<svg id="Artwork" xmlns="http://www.w3.org/2000/svg" viewBox="0 0 150 150">
  <defs>
    <style>
      .cls-1 {
        fill: #384d54;
      }

      .cls-1, .cls-2 {
        fill-rule: evenodd;
      }

      .cls-2 {
        fill: #29b7ea;
      }
    </style>
  </defs>
  <path class="cls-2" d="M33.92,60.54v10.85h10.85v-10.85h-10.85ZM35.67,70.49h-.85v-9.05h.85v9.05ZM37.33,70.49h-.9v-9.05h.9v9.05ZM38.96,70.49h-.89v-9.05h.89v9.05ZM40.61,70.49h-.88v-9.05h.88v9.05ZM42.26,70.49h-.89v-9.05h.89v9.05ZM43.87,70.49h-.86v-9.05h.86v9.05ZM46.44,48v10.86h10.86v-10.86h-10.86ZM48.21,57.96h-.85v-9.05h.85v9.05ZM49.85,57.96h-.89v-9.05h.89v9.05ZM51.5,57.96h-.89v-9.05h.89v9.05ZM53.14,57.96h-.89v-9.05h.89v9.05ZM54.79,57.96h-.89v-9.05h.89v9.05ZM56.41,57.96h-.86v-9.05h.86v9.05ZM46.44,60.54v10.85h10.86v-10.85h-10.86ZM48.21,70.49h-.85v-9.05h.85v9.05ZM49.85,70.49h-.89v-9.05h.89v9.05ZM51.5,70.49h-.89v-9.05h.89v9.05ZM53.14,70.49h-.89v-9.05h.89v9.05ZM54.79,70.49h-.89v-9.05h.89v9.05ZM56.41,70.49h-.86v-9.05h.86v9.05ZM58.98,48v10.86h10.86v-10.86h-10.86ZM60.74,57.96h-.86v-9.05h.86v9.05ZM62.39,57.96h-.89v-9.05h.89v9.05ZM64.03,57.96h-.89v-9.05h.89v9.05ZM65.68,57.96h-.89v-9.05h.89v9.05ZM67.33,57.96h-.89v-9.05h.89v9.05ZM68.93,57.96h-.85v-9.05h.85v9.05ZM58.98,60.54v10.85h10.86v-10.85h-10.86ZM60.74,70.49h-.86v-9.05h.86v9.05ZM62.39,70.49h-.89v-9.05h.89v9.05ZM64.03,70.49h-.89v-9.05h.89v9.05ZM65.68,70.49h-.89v-9.05h.89v9.05ZM67.33,70.49h-.89v-9.05h.89v9.05ZM68.93,70.49h-.85v-9.05h.85v9.05ZM71.51,35.47v10.86h10.86v-10.86h-10.86ZM73.27,45.42h-.85v-9.05h.85v9.05ZM74.92,45.42h-.89v-9.05h.89v9.05ZM76.56,45.42h-.89v-9.05h.89v9.05ZM78.22,45.42h-.9v-9.05h.9v9.05ZM79.86,45.42h-.89v-9.05h.89v9.05ZM81.47,45.42h-.85v-9.05h.85v9.05ZM71.51,48v10.86h10.86v-10.86h-10.86ZM73.27,57.96h-.85v-9.05h.85v9.05ZM74.92,57.96h-.89v-9.05h.89v9.05ZM76.56,57.96h-.89v-9.05h.89v9.05ZM78.22,57.96h-.9v-9.05h.9v9.05ZM79.86,57.96h-.89v-9.05h.89v9.05ZM81.47,57.96h-.85v-9.05h.85v9.05ZM71.51,60.54v10.85h10.86v-10.85h-10.86ZM73.27,70.49h-.85v-9.05h.85v9.05ZM74.92,70.49h-.89v-9.05h.89v9.05ZM76.56,70.49h-.89v-9.05h.89v9.05ZM78.22,70.49h-.9v-9.05h.9v9.05ZM79.86,70.49h-.89v-9.05h.89v9.05ZM81.47,70.49h-.85v-9.05h.85v9.05ZM84.04,60.54v10.85h10.86v-10.85h-10.86ZM85.81,70.49h-.85v-9.05h.85v9.05ZM87.45,70.49h-.89v-9.05h.89v9.05ZM89.1,70.49h-.89v-9.05h.89v9.05ZM90.74,70.49h-.89v-9.05h.89v9.05ZM92.39,70.49h-.89v-9.05h.89v9.05ZM94,70.49h-.85v-9.05h.85v9.05ZM134.02,61.42c-.47-.03-.95-.04-1.42-.02-2.82.06-5.47.77-7.42,1.73-.05.02-.08.04-.12.05.83-6.47-3.97-11.58-7.01-14.05-.03-.02-.05-.04-.07-.05-3.49,4.05-4.04,14.63,1.45,19.08-2.87,2.55-8.71,4.87-14.86,5.15-.37.02-.75.03-1.13.03H23.01c-.25,2.73-.22,5.36.09,7.9h.12c.44,0,.86,0,1.29,0,4.26-.15,8.21-1.37,9.83-2.9,0,.02.03.04.05.05,1.44,2.01,5.37,2.97,9.82,3.17,1.24.05,2.51.05,3.78,0,6.35-.28,12.6-1.9,13.39-4.09.03.03.05.05.07.08,2.23,2.55,6.6,3.9,11.09,4.04.56.02,1.13.02,1.69,0,4.49-.16,8.85-1.54,11.05-4.12,0,.03.02.05.04.08.92,2.16,7.15,3.75,13.46,4.01.22,0,.45.02.66.03,1.05.03,2.09.02,3.12-.03,4.44-.22,8.35-1.2,9.75-3.23.02.02.04.04.06.05,1.11,1.01,3.24,1.88,5.79,2.39,0,0,0-.02,0-.03,1.8-3.08,3.37-6.42,4.74-10.03.04,0,.07,0,.11,0,.76.08,1.53.13,2.28.15.61,0,1.21,0,1.81-.02,5.79-.25,10.93-2.46,13.55-7.57-2.06-1.19-4.37-1.75-6.64-1.87ZM23.33,82.79c.55,3.29,1.57,6.37,3.02,9.21l.91,1.67c.58.98,1.21,1.94,1.89,2.85.67.05,1.34.08,1.98.11,2.59.13,5.02.16,7.27.11.65,0,1.27-.04,1.89-.06,1.95-.09,3.77-.26,5.44-.51,2.23-.33,4.19-.78,5.88-1.36.11-.04.23-.05.34-.05.4.03.75.28.87.68.15.48-.1,1-.58,1.19-.45.15-.92.3-1.4.44,2.26,5.23,6.34,10.02,13.76,13.54.04,0,.06,0,.1,0,21.85-.84,40.78-9.59,52.25-27.8H23.33ZM56.63,89.01c1.65-.03,3.02,1.3,3.04,2.95.03,1.65-1.3,3.01-2.95,3.04h-.08c-1.65-.03-2.97-1.38-2.95-3.04.02-1.63,1.34-2.94,2.95-2.95Z"/>
  <path class="cls-1" d="M58.61,91.18c-.15.27-.44.45-.77.45-.31,0-.6-.16-.75-.43-.24-.42-.1-.95.32-1.2-.24-.09-.5-.14-.78-.14s-.56.06-.82.16c-1.09.45-1.61,1.71-1.16,2.81.45,1.09,1.71,1.61,2.8,1.16,1.1-.45,1.61-1.71,1.16-2.81Z"/>
  <path class="cls-1" d="M134.61,77.01c-3.23,3.73-9.11,4.63-14.11,4.11,1.44-2.57,2.75-5.29,3.91-8.18,7.25.37,14.66-1.77,18.22-8.69l.9-1.77-1.72-.99c-4.2-2.42-9.78-2.75-14.55-1.35-.58-5.05-3.91-9.49-7.86-12.67l-1.56-1.26-1.32,1.53c-2.65,3.06-3.44,8.15-3.07,12.06.26,2.87,1.16,5.79,2.94,8.1-1.35.81-2.87,1.45-4.24,1.91-2.77.95-5.78,1.46-8.71,1.46h-6.34v-12.81h-12.53v-25.07h-15.05v12.54h-25.06v12.54h-12.54v12.81h-10.72l-.17,1.89c-.25,2.66-.24,5.33.05,7.95-3.43-.4-6.71-1.63-8.84-4.09,1.08,3.97-5.49,5.02-8.53,5.78h17.59c.47,3.03,1.34,5.98,2.61,8.8l1.13,2.29.13.21c7.74,13.13,21.31,18.66,36.11,18.66,24.9,0,46.01-9.67,58.23-29.96h23.61c-3.04-.76-9.6-1.81-8.52-5.78ZM95.02,60.54v10.85h-10.86v-10.85h10.86ZM82.49,35.47v10.86h-10.86v-10.86h10.86ZM71.63,60.54h10.86v10.85h-10.86v-10.85ZM71.63,58.87v-10.86h10.86v10.86h-10.86ZM69.95,48v10.86h-10.86v-10.86h10.86ZM59.09,60.54h10.86v10.85h-10.86v-10.85ZM57.43,48v10.86h-10.86v-10.86h10.86ZM46.56,60.54h10.86v10.85h-10.86v-10.85ZM44.89,60.54v10.85h-10.86v-10.85h10.86ZM64.71,110.6h0c-7.41-3.52-11.48-8.31-13.75-13.54.49-.14.95-.28,1.41-.44.47-.19.73-.71.57-1.19-.13-.44-.55-.7-.98-.68-.07,0-.15.03-.23.05-1.69.58-3.65,1.04-5.87,1.36-1.7.25-3.55.42-5.55.51-.62.03-1.25.05-1.89.06-2.25.05-4.68.02-7.27-.11-.61-.04-1.24-.07-1.86-.11-.68-.91-1.32-1.86-1.89-2.85l-.92-1.67c-1.44-2.84-2.46-5.92-3.01-9.21h93.63c-11.49,18.24-30.46,26.99-52.36,27.81ZM118.29,80.79s-.07-.02-.11-.03c-2.56-.52-4.67-1.41-5.75-2.42,0,.02-.03.04-.05.05-1.44,2.01-5.38,2.98-9.82,3.17-1.03.05-2.07.05-3.12.03-.22,0-.45-.02-.66-.03-6.35-.28-12.6-1.9-13.39-4.09-.03.03-.05.05-.07.08-2.23,2.55-6.6,3.9-11.09,4.04-.56.02-1.13.02-1.69,0-4.49-.16-8.85-1.54-11.05-4.12,0,.03-.02.05-.04.08-.92,2.16-7.15,3.75-13.46,4.01-1.27.05-2.55.05-3.78,0-4.44-.22-8.35-1.2-9.75-3.23-.02.02-.04.04-.06.05-1.66,1.52-5.62,2.73-9.87,2.85-.43.02-.85.02-1.29,0-.31-2.54-.35-5.17-.09-7.9h80.32c.37,0,.75,0,1.13-.03,6.2-.25,12.09-2.59,14.97-5.15-5.45-4.44-4.95-14.95-1.48-19.03.02-.02.03-.04.05-.05,3.02,2.43,7.89,7.55,7.08,14.05,0,.02,0,.04,0,.05,1.95-.97,4.6-1.7,7.43-1.78.47-.02.95,0,1.42.02,2.3.1,4.65.66,6.75,1.87-2.64,5.14-7.82,7.35-13.65,7.57-.6.03-1.2.03-1.81.02-.75-.02-1.52-.07-2.28-.15h0c-1.36,3.63-2.95,6.96-4.74,10.05Z"/>
</svg>