<?xml version="1.0" encoding="UTF-8"?>
<svg id="Artwork" xmlns="http://www.w3.org/2000/svg" viewBox="0 0 150 150">
  <defs>
    <style>
      .cls-1 {
        fill: #5b2d90;
      }

      .cls-2 {
        fill: none;
      }

      .cls-3 {
        fill: #6c419b;
      }
    </style>
  </defs>
  <g>
    <path class="cls-2" d="M69.07,112.92c-3.8-.81-4.3-6.68-1.83-9.19.96-.98,2.26-1.35,3.62-1.19,5.56.67,5.1,11.85-1.79,10.38Z"/>
    <path class="cls-2" d="M97.88,106.68h-7.2c.13-5.32,7.35-5.61,7.2,0Z"/>
    <path class="cls-1" d="M142.92,55.89c-7.89-28.04-33.32-50.21-62.76-51.72-14.64-.74-26.41.75-39.49,7.76-4.49,2.4-8.78,5.34-12.76,8.71l30.9,32.56.03-7.44h4.71v12.43l10.52,11.09v-23.52h20.49l-.28,4.15h-15.09s-.42.39-.42.42v13.15h14.68v4.15h-14.68v6.61l7.14,7.52h9.48v4.15l-5.47.07,36.15,38.09c9.04-9.59,15.47-21.55,18.02-34.67,1.91-9.79,1.53-23.92-1.17-33.51ZM127.23,49.91h-11.49l-.14,36c-1.66-.06-3.05.56-4.71,0v-36h-11.62v-3.87h27.96v3.87Z"/>
    <polygon class="cls-3" points="85.91 81.76 78.77 81.76 78.77 74.24 85.91 81.76"/>
    <path class="cls-3" d="M89.92,85.98l-15.85.21v-16.91l-10.52-11.09v28h-5.82l-22.15-34.62.28,34.62h-4.71v-40.43h6.09l21.46,34.06.11-26.62L27.91,20.64C13.64,32.72,3.46,50.37,3.18,69.02c-.26,3.86.2,8.01,0,11.9,1.22,34,31.82,64.13,65.35,65.08h11.08c9.65.13,19-2.91,27.46-7.41,7.1-3.78,13.53-8.72,19-14.52l-36.15-38.09ZM19.63,86.72c-3.85.18-4.06-5.71-.46-6.3,3.97-.66,4.78,6.11.46,6.3ZM57.24,114.63c-13.54,1.44-13.5-20.04.59-18.99,2,.15,3.77.28,3.22,2.73-2.88-1.13-6.46-1.61-8.99.56-3.84,3.28-3.71,11.34,1.24,13.42,2.67,1.13,5.13.4,7.75-.41.7,2.18-2.14,2.51-3.81,2.69ZM76.56,108.75c-.65,5.91-8.08,8.15-11.63,3.32-2.47-3.37-1.13-10.35,3.53-11.14,5.5-.94,8.7,2.38,8.1,7.82ZM87.08,103.08c-6.35-1.72-4.73,7.58-4.98,11.35h-1.94v-13.29c1.63.14,2.2.13,2.22,1.94,1.46-1.59,5.3-4.1,4.7,0ZM98.99,111.66c.27,2.03-.15,2.13-1.94,2.63-5.62,1.58-9.24-2.07-8.55-7.72.8-6.67,9.98-8.02,11.25-1.35.18.95-.14,1.94.35,2.84l-9.69.28c.52,4.95,4.8,5.81,8.58,3.32Z"/>
  </g>
  <g>
    <path class="cls-3" d="M97.88,106.68h-7.2c.13-5.32,7.35-5.61,7.2,0Z"/>
    <path class="cls-3" d="M69.07,112.92c-3.8-.81-4.3-6.68-1.83-9.19.96-.98,2.26-1.35,3.62-1.19,5.56.67,5.1,11.85-1.79,10.38Z"/>
  </g>
</svg>