<?xml version="1.0" encoding="UTF-8"?>
<svg id="Artwork" xmlns="http://www.w3.org/2000/svg" viewBox="0 0 150 150">
  <defs>
    <style>
      .cls-1 {
        fill: #475362;
      }
    </style>
  </defs>
  <path class="cls-1" d="M148,76.23C148,35.92,115.32,3.23,75,3.23S2,35.92,2,76.23c0,32,20.59,59.19,49.25,69.04,1.75-1.26,3.76-2.82,3.76-5.44,0-4.01-.09-14.34-.09-14.34,0,0-3.17.54-7.69.54-11.39,0-15-7.23-16.71-11.28-2.23-5.27-5.13-7.75-8.2-9.72-1.89-1.22-2.32-2.65-.14-3.06,10.09-1.89,12.66,11.38,19.4,13.49,4.81,1.51,10.99.86,14.06-1.12.41-4.05,3.34-7.55,5.79-9.4-17.13-1.64-27.29-7.55-32.56-17.07l-.56-1.06-1.32-3.02-.39-1.08c-1.65-4.83-2.38-10.36-2.38-16.53,0-10.97,3.44-15.1,8.05-20.95-3.53-12.5,1.27-21.05,1.27-21.05,0,0,7.42-1.53,21.43,8.45,7.6-3.24,27.85-3.51,37.44-.72,5.88-3.87,16.64-9.35,20.98-7.82,1.18,1.88,3.71,7.37,1.54,19.42,1.47,2.64,9.13,8.27,9.16,24.19-.12,5.87-.74,10.83-1.88,15.02l-.63,2.14s-.36,1.01-.76,1.98l-.46,1.06c-5.08,11.1-15.51,15.25-32.35,16.97,5.46,3.42,7.02,7.71,7.02,19.31s-.16,13.16-.12,15.83c.03,2.36,1.92,4.05,3.61,5.34,28.78-9.79,49.48-37.04,49.48-69.13Z"/>
</svg>