<?xml version="1.0" encoding="UTF-8"?>
<svg id="Artwork" xmlns="http://www.w3.org/2000/svg" viewBox="0 0 150 150">
  <defs>
    <style>
      .cls-1 {
        fill: #e54d24;
      }

      .cls-2 {
        fill: #f48446;
      }

      .cls-3 {
        fill: #242a5f;
      }
    </style>
  </defs>
  <polygon class="cls-1" points="82.82 64.98 82.82 77.64 66.46 77.64 65.33 64.98 82.82 64.98"/>
  <path class="cls-1" d="M33.44,32.01l8.99,100.8,40.33,11.2,40.44-11.21,9-100.79H33.44ZM115.5,126.38l-32.68,9.06v-12.83h-.06s-25.32-7.02-25.32-7.02l-1.73-19.41h12.41l.88,9.86,13.77,3.72h.01l.04-.02v-19.74h-27.67l-3.04-34.07-.29-3.32h31v-12.36h40.37l-7.69,86.13Z"/>
  <polygon class="cls-2" points="123.19 40.25 115.5 126.38 82.82 135.44 82.82 122.61 108.12 115.59 108.31 113.5 111.21 80.96 111.51 77.64 82.82 77.64 82.82 64.98 112.64 64.98 112.89 62.2 113.45 55.93 113.75 52.61 82.82 52.61 82.82 40.25 123.19 40.25"/>
  <polygon class="cls-2" points="98 90 96.56 106.03 82.82 109.74 82.82 90 98 90"/>
  <polygon class="cls-1" points="48.91 23.41 48.91 17.12 54.66 17.12 54.66 23.41 60.94 23.41 60.94 4.62 54.66 4.62 54.66 10.82 48.91 10.82 48.91 4.62 42.63 4.62 42.63 23.41 48.91 23.41"/>
  <polygon class="cls-1" points="69.21 10.85 69.21 23.41 75.49 23.41 75.49 10.85 81.02 10.85 81.02 4.62 63.67 4.62 63.67 10.85 69.21 10.85 69.21 10.85"/>
  <polygon class="cls-1" points="89.92 14.1 94.25 20.78 94.36 20.78 98.68 14.1 98.68 23.41 104.94 23.41 104.94 4.62 98.38 4.62 94.36 11.22 90.33 4.62 83.78 4.62 83.78 23.41 89.92 23.41 89.92 14.1"/>
  <polygon class="cls-1" points="123.18 17.2 114.35 17.2 114.35 4.62 108.06 4.62 108.06 23.41 123.18 23.41 123.18 17.2"/>
  <polygon class="cls-3" points="82.82 109.74 82.82 109.75 82.78 109.76 82.82 109.74"/>
</svg>