<?xml version="1.0" encoding="UTF-8"?>
<svg id="Artwork" xmlns="http://www.w3.org/2000/svg" viewBox="0 0 150 150">
  <defs>
    <style>
      .cls-1 {
        fill: #f7df1e;
      }
    </style>
  </defs>
  <path class="cls-1" d="M.13,1.13v149.04h149.03V1.13H.13ZM50.37,119.32l1.27.19c.71,7.4,15.06,8.01,15.06,2.34v-52.17h14.9v52.17c0,1.28-2.58,6.95-3.54,8.38-6.68,9.88-22.7,10.81-31.73,4.04-10.64-7.98-5.77-10.58,4.04-14.95ZM88.67,124.82l11.33-7.4c3.03,9.79,25.06,12.36,23.36.51-1.1-7.64-23.86-9.65-28.88-21.88-10.54-25.7,25.6-37.71,38.74-16.83.41,1.76-10.21,8.13-11.75,7.23-5-11.14-22.08-2.22-11,6.52,8.13,6.42,24.41,6.7,26.71,20.99,4.72,29.34-36.69,31.95-48.51,10.86Z"/>
  <path class="cls-1" d="M66.57,69.56v52.29c0,2.51-2.88,3.54-5.34,3.66-4.35.2-9.08-1.99-9.47-6.01v-.1s-1.41-.21-1.41-.21l-.03.02c-5.9,2.62-9.78,4.54-10.1,7.3-.23,2.1,1.68,4.6,6.03,7.86,3.77,2.82,8.94,4.38,14.18,4.38,1.42,0,2.85-.11,4.26-.35,5.82-.98,10.6-3.86,13.47-8.1.93-1.38,3.57-7.12,3.57-8.45v-52.29h-15.16ZM81.47,121.85c0,1.19-2.52,6.83-3.52,8.3-2.83,4.19-7.55,7.03-13.31,8-6.5,1.1-13.49-.43-18.23-3.99-4.28-3.2-6.16-5.62-5.93-7.62.29-2.62,4.11-4.51,9.91-7.09l1.13.17c.47,4.11,5.29,6.35,9.72,6.14,3.39-.16,5.58-1.7,5.58-3.91v-52.04h14.65v52.04ZM137.31,113.94c-1.57-9.73-9.45-12.96-17.06-16.09-3.64-1.5-7.08-2.91-9.7-4.98-2.94-2.31-4.15-4.89-3.41-7.24.73-2.32,3.32-4.07,6.3-4.24,3.43-.2,6.39,1.71,7.91,5.11l.02.04.03.02c1.15.67,6.32-2.13,9.24-4.28,1.33-.98,2.88-2.32,2.7-3.09l-.02-.04c-4.22-6.71-10.16-9.23-14.4-10.16-5.45-1.19-11.37-.44-16.24,2.06-7.42,3.82-13.5,12.41-8.32,25.05,2.74,6.66,10.61,10.27,17.56,13.45,5.81,2.66,10.82,4.96,11.31,8.4.75,5.22-3.12,6.89-5.49,7.43-6.38,1.43-15.76-1.97-17.62-7.99l-.05-.16-11.47,7.49-.1.06.06.1c3.2,5.71,8.83,10.09,15.85,12.32,3.29,1.04,6.73,1.56,10.1,1.56s6.65-.52,9.63-1.56c4.66-1.62,8.34-4.42,10.66-8.1,2.61-4.15,3.46-9.25,2.51-15.16ZM124.06,136.97c-11.46,3.99-28.31.07-35.22-12.11l11.09-7.24c2.01,6.04,11.44,9.45,17.86,8.01,4.19-.95,6.26-3.76,5.69-7.72-.51-3.57-5.58-5.9-11.46-8.59-6.9-3.16-14.73-6.75-17.42-13.32-5.12-12.48.88-20.95,8.2-24.72,9.38-4.83,23.27-3.16,30.3,7.98.08.5-.89,1.54-2.61,2.81-3.13,2.31-7.91,4.76-8.92,4.29-1.58-3.48-4.62-5.43-8.15-5.23-3.08.18-5.76,2-6.52,4.42-.78,2.46.47,5.13,3.5,7.52,2.65,2.09,6.1,3.51,9.75,5.01,7.55,3.1,15.36,6.31,16.91,15.9,1.78,11.11-2.95,19.49-13,22.99ZM137.31,113.94c-1.57-9.73-9.45-12.96-17.06-16.09-3.64-1.5-7.08-2.91-9.7-4.98-2.94-2.31-4.15-4.89-3.41-7.24.73-2.32,3.32-4.07,6.3-4.24,3.43-.2,6.39,1.71,7.91,5.11l.02.04.03.02c1.15.67,6.32-2.13,9.24-4.28,1.33-.98,2.88-2.32,2.7-3.09l-.02-.04c-4.22-6.71-10.16-9.23-14.4-10.16-5.45-1.19-11.37-.44-16.24,2.06-7.42,3.82-13.5,12.41-8.32,25.05,2.74,6.66,10.61,10.27,17.56,13.45,5.81,2.66,10.82,4.96,11.31,8.4.75,5.22-3.12,6.89-5.49,7.43-6.38,1.43-15.76-1.97-17.62-7.99l-.05-.16-11.47,7.49-.1.06.06.1c3.2,5.71,8.83,10.09,15.85,12.32,3.29,1.04,6.73,1.56,10.1,1.56s6.65-.52,9.63-1.56c4.66-1.62,8.34-4.42,10.66-8.1,2.61-4.15,3.46-9.25,2.51-15.16ZM124.06,136.97c-11.46,3.99-28.31.07-35.22-12.11l11.09-7.24c2.01,6.04,11.44,9.45,17.86,8.01,4.19-.95,6.26-3.76,5.69-7.72-.51-3.57-5.58-5.9-11.46-8.59-6.9-3.16-14.73-6.75-17.42-13.32-5.12-12.48.88-20.95,8.2-24.72,9.38-4.83,23.27-3.16,30.3,7.98.08.5-.89,1.54-2.61,2.81-3.13,2.31-7.91,4.76-8.92,4.29-1.58-3.48-4.62-5.43-8.15-5.23-3.08.18-5.76,2-6.52,4.42-.78,2.46.47,5.13,3.5,7.52,2.65,2.09,6.1,3.51,9.75,5.01,7.55,3.1,15.36,6.31,16.91,15.9,1.78,11.11-2.95,19.49-13,22.99ZM66.57,121.85c0,2.51-2.88,3.54-5.34,3.66-4.35.2-9.08-1.99-9.47-6.01v-.1s-1.41-.21-1.41-.21l-.03.02c-5.9,2.62-9.78,4.54-10.1,7.3-.23,2.1,1.68,4.6,6.03,7.86,3.77,2.82,8.94,4.38,14.18,4.38,1.42,0,2.85-.11,4.26-.35,5.82-.98,10.6-3.86,13.47-8.1.93-1.38,3.57-7.12,3.57-8.45v-52.29h-15.16v52.29ZM66.82,69.81h14.65v52.04c0,1.19-2.52,6.83-3.52,8.3-2.83,4.19-7.55,7.03-13.31,8-6.5,1.1-13.49-.43-18.23-3.99-4.28-3.2-6.16-5.62-5.93-7.62.29-2.62,4.11-4.51,9.91-7.09l1.13.17c.47,4.11,5.29,6.35,9.72,6.14,3.39-.16,5.58-1.7,5.58-3.91v-52.04ZM0,1v149.29h149.29V1H0ZM149.04,150.04H.25V1.25h148.79v148.79ZM104.41,137.2c3.29,1.04,6.73,1.56,10.1,1.56s6.65-.52,9.63-1.56c4.66-1.62,8.34-4.42,10.66-8.1,2.61-4.15,3.46-9.25,2.51-15.16-1.57-9.73-9.45-12.96-17.06-16.09-3.64-1.5-7.08-2.91-9.7-4.98-2.94-2.31-4.15-4.89-3.41-7.24.73-2.32,3.32-4.07,6.3-4.24,3.43-.2,6.39,1.71,7.91,5.11l.02.04.03.02c1.15.67,6.32-2.13,9.24-4.28,1.33-.98,2.88-2.32,2.7-3.09l-.02-.04c-4.22-6.71-10.16-9.23-14.4-10.16-5.45-1.19-11.37-.44-16.24,2.06-7.42,3.82-13.5,12.41-8.32,25.05,2.74,6.66,10.61,10.27,17.56,13.45,5.81,2.66,10.82,4.96,11.31,8.4.75,5.22-3.12,6.89-5.49,7.43-6.38,1.43-15.76-1.97-17.62-7.99l-.05-.16-11.47,7.49-.1.06.06.1c3.2,5.71,8.83,10.09,15.85,12.32ZM99.93,117.62c2.01,6.04,11.44,9.45,17.86,8.01,4.19-.95,6.26-3.76,5.69-7.72-.51-3.57-5.58-5.9-11.46-8.59-6.9-3.16-14.73-6.75-17.42-13.32-5.12-12.48.88-20.95,8.2-24.72,9.38-4.83,23.27-3.16,30.3,7.98.08.5-.89,1.54-2.61,2.81-3.13,2.31-7.91,4.76-8.92,4.29-1.58-3.48-4.62-5.43-8.15-5.23-3.08.18-5.76,2-6.52,4.42-.78,2.46.47,5.13,3.5,7.52,2.65,2.09,6.1,3.51,9.75,5.01,7.55,3.1,15.36,6.31,16.91,15.9,1.78,11.11-2.95,19.49-13,22.99-11.46,3.99-28.31.07-35.22-12.11l11.09-7.24ZM46.25,134.37c3.77,2.82,8.94,4.38,14.18,4.38,1.42,0,2.85-.11,4.26-.35,5.82-.98,10.6-3.86,13.47-8.1.93-1.38,3.57-7.12,3.57-8.45v-52.29h-15.16v52.29c0,2.51-2.88,3.54-5.34,3.66-4.35.2-9.08-1.99-9.47-6.01v-.1s-1.41-.21-1.41-.21l-.03.02c-5.9,2.62-9.78,4.54-10.1,7.3-.23,2.1,1.68,4.6,6.03,7.86ZM51.52,119.62c.47,4.11,5.29,6.35,9.72,6.14,3.39-.16,5.58-1.7,5.58-3.91v-52.04h14.65v52.04c0,1.19-2.52,6.83-3.52,8.3-2.83,4.19-7.55,7.03-13.31,8-6.5,1.1-13.49-.43-18.23-3.99-4.28-3.2-6.16-5.62-5.93-7.62.29-2.62,4.11-4.51,9.91-7.09l1.13.17ZM66.57,69.56v52.29c0,2.51-2.88,3.54-5.34,3.66-4.35.2-9.08-1.99-9.47-6.01v-.1s-1.41-.21-1.41-.21l-.03.02c-5.9,2.62-9.78,4.54-10.1,7.3-.23,2.1,1.68,4.6,6.03,7.86,3.77,2.82,8.94,4.38,14.18,4.38,1.42,0,2.85-.11,4.26-.35,5.82-.98,10.6-3.86,13.47-8.1.93-1.38,3.57-7.12,3.57-8.45v-52.29h-15.16ZM81.47,121.85c0,1.19-2.52,6.83-3.52,8.3-2.83,4.19-7.55,7.03-13.31,8-6.5,1.1-13.49-.43-18.23-3.99-4.28-3.2-6.16-5.62-5.93-7.62.29-2.62,4.11-4.51,9.91-7.09l1.13.17c.47,4.11,5.29,6.35,9.72,6.14,3.39-.16,5.58-1.7,5.58-3.91v-52.04h14.65v52.04ZM137.31,113.94c-1.57-9.73-9.45-12.96-17.06-16.09-3.64-1.5-7.08-2.91-9.7-4.98-2.94-2.31-4.15-4.89-3.41-7.24.73-2.32,3.32-4.07,6.3-4.24,3.43-.2,6.39,1.71,7.91,5.11l.02.04.03.02c1.15.67,6.32-2.13,9.24-4.28,1.33-.98,2.88-2.32,2.7-3.09l-.02-.04c-4.22-6.71-10.16-9.23-14.4-10.16-5.45-1.19-11.37-.44-16.24,2.06-7.42,3.82-13.5,12.41-8.32,25.05,2.74,6.66,10.61,10.27,17.56,13.45,5.81,2.66,10.82,4.96,11.31,8.4.75,5.22-3.12,6.89-5.49,7.43-6.38,1.43-15.76-1.97-17.62-7.99l-.05-.16-11.47,7.49-.1.06.06.1c3.2,5.71,8.83,10.09,15.85,12.32,3.29,1.04,6.73,1.56,10.1,1.56s6.65-.52,9.63-1.56c4.66-1.62,8.34-4.42,10.66-8.1,2.61-4.15,3.46-9.25,2.51-15.16ZM124.06,136.97c-11.46,3.99-28.31.07-35.22-12.11l11.09-7.24c2.01,6.04,11.44,9.45,17.86,8.01,4.19-.95,6.26-3.76,5.69-7.72-.51-3.57-5.58-5.9-11.46-8.59-6.9-3.16-14.73-6.75-17.42-13.32-5.12-12.48.88-20.95,8.2-24.72,9.38-4.83,23.27-3.16,30.3,7.98.08.5-.89,1.54-2.61,2.81-3.13,2.31-7.91,4.76-8.92,4.29-1.58-3.48-4.62-5.43-8.15-5.23-3.08.18-5.76,2-6.52,4.42-.78,2.46.47,5.13,3.5,7.52,2.65,2.09,6.1,3.51,9.75,5.01,7.55,3.1,15.36,6.31,16.91,15.9,1.78,11.11-2.95,19.49-13,22.99ZM137.31,113.94c-1.57-9.73-9.45-12.96-17.06-16.09-3.64-1.5-7.08-2.91-9.7-4.98-2.94-2.31-4.15-4.89-3.41-7.24.73-2.32,3.32-4.07,6.3-4.24,3.43-.2,6.39,1.71,7.91,5.11l.02.04.03.02c1.15.67,6.32-2.13,9.24-4.28,1.33-.98,2.88-2.32,2.7-3.09l-.02-.04c-4.22-6.71-10.16-9.23-14.4-10.16-5.45-1.19-11.37-.44-16.24,2.06-7.42,3.82-13.5,12.41-8.32,25.05,2.74,6.66,10.61,10.27,17.56,13.45,5.81,2.66,10.82,4.96,11.31,8.4.75,5.22-3.12,6.89-5.49,7.43-6.38,1.43-15.76-1.97-17.62-7.99l-.05-.16-11.47,7.49-.1.06.06.1c3.2,5.71,8.83,10.09,15.85,12.32,3.29,1.04,6.73,1.56,10.1,1.56s6.65-.52,9.63-1.56c4.66-1.62,8.34-4.42,10.66-8.1,2.61-4.15,3.46-9.25,2.51-15.16ZM124.06,136.97c-11.46,3.99-28.31.07-35.22-12.11l11.09-7.24c2.01,6.04,11.44,9.45,17.86,8.01,4.19-.95,6.26-3.76,5.69-7.72-.51-3.57-5.58-5.9-11.46-8.59-6.9-3.16-14.73-6.75-17.42-13.32-5.12-12.48.88-20.95,8.2-24.72,9.38-4.83,23.27-3.16,30.3,7.98.08.5-.89,1.54-2.61,2.81-3.13,2.31-7.91,4.76-8.92,4.29-1.58-3.48-4.62-5.43-8.15-5.23-3.08.18-5.76,2-6.52,4.42-.78,2.46.47,5.13,3.5,7.52,2.65,2.09,6.1,3.51,9.75,5.01,7.55,3.1,15.36,6.31,16.91,15.9,1.78,11.11-2.95,19.49-13,22.99ZM66.57,69.56v52.29c0,2.51-2.88,3.54-5.34,3.66-4.35.2-9.08-1.99-9.47-6.01v-.1s-1.41-.21-1.41-.21l-.03.02c-5.9,2.62-9.78,4.54-10.1,7.3-.23,2.1,1.68,4.6,6.03,7.86,3.77,2.82,8.94,4.38,14.18,4.38,1.42,0,2.85-.11,4.26-.35,5.82-.98,10.6-3.86,13.47-8.1.93-1.38,3.57-7.12,3.57-8.45v-52.29h-15.16ZM81.47,121.85c0,1.19-2.52,6.83-3.52,8.3-2.83,4.19-7.55,7.03-13.31,8-6.5,1.1-13.49-.43-18.23-3.99-4.28-3.2-6.16-5.62-5.93-7.62.29-2.62,4.11-4.51,9.91-7.09l1.13.17c.47,4.11,5.29,6.35,9.72,6.14,3.39-.16,5.58-1.7,5.58-3.91v-52.04h14.65v52.04Z"/>
</svg>