<?xml version="1.0" encoding="UTF-8"?>
<svg id="Artwork" xmlns="http://www.w3.org/2000/svg" viewBox="0 0 148 150">
  <defs>
    <style>
      .cls-1 {
        fill: #69b240;
      }

      .cls-2 {
        fill: #599636;
      }

      .cls-3 {
        fill: #c0bebd;
      }
    </style>
  </defs>
  <path class="cls-3" d="M74.51,115.81l.62.55c-.26,5.28,1.16,9.71,4.26,13.28l.11.83c-1.12,1.21-2.35,5.29-2.35,6.89v9.97c0,.61.77,1.87,0,2.79h-.88c-.73-.95-2.78-.59-3.1-1.73-.17-2.79-.13-5.56-.46-8.34-.21-1.74-1.86-7.51-1.72-8.39l-.44-.55c1.75-5.24,2.66-10.77,2.74-16.58.66-1.42,1.07-.98,1.21,1.3Z"/>
  <path class="cls-1" d="M70.99,131.64c-8.14-5.91-15.4-14-20.64-22.6-18.25-29.9-10.61-72.77,13.6-97.17,2.43-2.45,7.57-5.81,8.52-9.07.32-1.08-.04-2.81,1.16-2.8.06.25-.08.71,0,.88l.61,2.65.85,111.17c.07.58.05.92-.58,1.1l-.58-2.05c-.29,5.23-.82,10.63-2.01,15.73-.18.79-.85,1.68-.92,2.16Z"/>
  <path class="cls-2" d="M79.5,130.47c-4.39-3.19-4.71-9.65-4.98-14.66l-.88-114.93c3.05,6.78,6.36,9.67,11,14.95,28.84,32.86,33.01,80.08-.73,111.27-1.17,1.08-3.51,2.4-4.4,3.37Z"/>
</svg>