<?xml version="1.0" encoding="UTF-8"?>
<svg id="Artwork" xmlns="http://www.w3.org/2000/svg" viewBox="0 0 150 150">
  <defs>
    <style>
      .cls-1 {
        fill: #8bc500;
      }
    </style>
  </defs>
  <path class="cls-1" d="M133.96,34.51L76.78,1.19c-2.53-1.48-5.66-1.48-8.19,0L11.4,34.51c-2.5,1.45-4.03,4.13-4.03,7.02v66.78c0,2.89,1.53,5.56,4.03,7.02l57.19,33.32c2.53,1.48,5.66,1.48,8.19,0l57.18-33.32c2.5-1.46,4.04-4.13,4.04-7.02V41.53c0-2.89-1.54-5.57-4.04-7.02ZM38.1,86.36c0,.96-.97,1.57-1.77,1.12l-5.41-3.02c-.4-.22-.65-.66-.64-1.13l.08-7.03c.01-.44-.2-.85-.56-1.08l-2.34-1.57c-.43-.29-.99-.3-1.43,0l-2.8,1.81c-.35.23-.57.64-.57,1.08v7.04c0,.46-.24.88-.62,1.1l-5.49,3.19c-.8.46-1.79-.14-1.79-1.11v-15.18c0-.44.23-.86.6-1.09l10.39-6.39c.41-.24.92-.25,1.33,0l10.4,5.98c.38.22.62.65.62,1.11v15.19ZM68.72,83.94c0,.52-.28,1-.72,1.26l-10.19,5.93c-.46.27-1.01.27-1.46,0l-10.2-5.93c-.44-.26-.72-.74-.72-1.26v-11.9c0-.51.28-.99.72-1.25l10.2-5.94c.45-.26,1-.26,1.46,0l10.19,5.94c.44.26.72.74.72,1.25v11.9ZM100.32,83.52c0,.69-.37,1.33-.96,1.69l-9.45,5.61c-.53.32-1.19.33-1.73.02l-9.84-5.51c-.59-.32-.95-.94-.95-1.61v-11.5c0-.7.37-1.34.97-1.69l9.41-5.49c.52-.3,1.14-.35,1.69-.15l3.55,1.3v-16c0-.44.47-.72.85-.51l5.46,2.93c.61.33,1,.98,1,1.68v29.23ZM131.39,74.39c0,.53-.27,1.02-.72,1.29l-6.35,3.9c-.09.05-.21-.01-.21-.11l-.1-3.21c-.01-.28-.15-.53-.38-.68l-3.32-2.19c-.23-.15-.53-.15-.76,0l-3.2,2.21c-.16.11-.25.28-.26.46l-.13,3.4c-.01.39.19.76.53.95l10.89,6.11c.06.03.06.11.01.13l-7.12,4.12c-.3.18-.66.18-.96.01l-10.37-5.85c-.29-.17-.48-.48-.48-.81l-.03-12.93c0-.31.16-.59.42-.74l10.46-6.23c.3-.17.67-.18.97,0l10.64,6.14c.29.17.47.48.47.82v3.2ZM122.29,76.55v2.33c0,.1-.05.19-.14.24l-1.99,1.16c-.09.05-.2.05-.29,0l-1.99-1.16c-.09-.05-.14-.14-.14-.24v-2.33c0-.1.05-.2.14-.25l1.99-1.16c.09-.05.2-.05.29,0l1.99,1.16c.09.05.14.15.14.25Z"/>
  <path class="cls-1" d="M61.19,75.89v4.21c0,.18-.1.35-.25.44l-3.61,2.1c-.16.09-.35.09-.51,0l-3.6-2.1c-.16-.09-.26-.26-.26-.44v-4.21c0-.18.1-.35.26-.44l3.6-2.1c.16-.09.35-.09.51,0l3.61,2.1c.15.09.25.26.25.44Z"/>
  <path class="cls-1" d="M92.83,75.99v4.21c0,.18-.09.35-.25.44l-3.6,2.1c-.16.09-.36.09-.52,0l-3.6-2.1c-.16-.09-.25-.26-.25-.44v-4.21c0-.18.09-.35.25-.44l3.6-2.1c.16-.09.36-.09.52,0l3.6,2.1c.16.09.25.26.25.44Z"/>
</svg>