<?xml version="1.0" encoding="UTF-8"?>
<svg id="Artwork" xmlns="http://www.w3.org/2000/svg" viewBox="0 0 148 150">
  <defs>
    <style>
      .cls-1 {
        fill: #ffd141;
      }

      .cls-2 {
        fill: #fff;
      }

      .cls-3 {
        fill: #376f9e;
      }
    </style>
  </defs>
  <path class="cls-1" d="M147.12,80.42v-15.86c-.05-.04-.12-.09-.14-.14-.36-.96-.58-3.58-.86-4.86-.31-1.43-.67-2.76-1.14-4.14-.42-1.24-.89-2.52-1.43-3.72-.04-.1-.1-.19-.14-.29-.58-1.25-1.28-2.42-2-3.57-.64-1.03-1.05-1.64-1.86-2.57-.93-1.06-1.88-2-3-2.86-2.1-1.61-4.78-2.92-7.43-3.29-1.56-.22-3.15-.12-4.71-.14-3.28-.05-6.57.04-9.86,0-.24.15-.14.54-.15.78-.03,2.51.08,5.3.15,8.19,0,.44,0,.88,0,1.32,0,1.62-.11,3.43-.01,5.03-.19,5.41-.99,10.7-3.56,14.69-1.16,1.8-2.6,2.92-4,4.43-.98.49-1.82,1.21-2.8,1.7-1.91.95-4.18,1.58-6.29,1.86-.96.13-1.98.09-2.91.31-1.09-.01-2.19,0-3.29,0-1.33,0-2.67,0-4,0-1.66,0-3.34,0-5,0-1.66,0-3.34,0-5,0-.1,0-.19,0-.29,0-1.38,0-2.76,0-4.14,0-.24,0-.48,0-.71,0-.19,0-.38,0-.57,0-3.24.01-6.48-.03-9.71,0-1.63.02-3.4-.1-5,0-.23,0-.59-.09-.71.14-9.77.91-17.17,6.94-17.57,17.15-.24.15-.14.54-.15.78-.06,5.64,0,11.3,0,16.94,0,5.47-.12,10.97,0,16.44.03,1.33.01,2.11.29,3.43.19.9.37,1.44.71,2.29.14.35.26.67.43,1,1.03,2,2.11,3.13,3.71,4.57,1.91,1.7,3.51,2.77,5.86,3.86.22.1.45.09.57.14,1.22.54,2,.87,3.29,1.29,1.4.45,2.7.82,4.14,1.14,1.44.32,2.7.5,4.14.71,1.81.26,3.31.43,5.14.57h.07c.13.04.39.13.65.14.47.03.96-.02,1.43,0,2.54.12,5.13.18,7.71.14,2.01-.03,3.9-.14,5.86-.29,8.29-.61,25.73-3.44,26.84-14.09.44-4.25.03-10.07.02-14.49,0-1.28,0-2.57,0-3.86l-35.57-.14c-.07-.21,0-.97,0-1.29-.01-.67-.13-3.31,0-3.72h52.08c12.61-.88,19.72-13.43,20.92-24.87.16-1.53-.12-3.3,0-4.86ZM93.38,136.51l-.4.22-.2-.34c-1.08-.28-2.04-.88-2.83-1.66h-.4s0-.43,0-.43c-1.23-1.58-1.63-3.68-1.12-5.61l-.18-.39.35-.13c.66-1.49,1.91-2.7,3.38-3.37l.12-.36.45.15c2.74-.98,5.24.34,6.97,2.49l.44.08.29.57c-.26.29-.25.48.14.43l-.19.41c1.1,4.46-2.1,8.72-6.83,7.95ZM100.41,115.3h-7.86c2.62,0,5.24,0,7.86,0Z"/>
  <path class="cls-3" d="M35.26,85.86c1.91-5.89,6.3-10.43,12.29-12.15,1.31-.38,2.64-.58,4-.71.26-.03.66-.14.71-.14.09,0,.19,0,.29,0,.94-.05,1.91.02,2.86,0,.14,0,.29,0,.43,0,1.38-.02,2.76,0,4.14,0,2.66-.02,5.34,0,8,0,2.71,0,5.43,0,8.14,0,2.81,0,5.62.02,8.43,0,2.77-.02,5.27.07,8-.29,9.42-1.23,16.49-6.9,17-16.86,0-.19,0-.38,0-.57.24-.15.14-.54.15-.78.11-10.85.35-22.27,0-33.09-.02-.69-.07-1.18-.14-1.86-.02-.14.02-.29,0-.43-.12-.83-.33-1.63-.57-2.43-.4-1.28-.71-1.89-1.43-3-.57-.88-1.06-1.39-1.71-2.14-.1-.12-.21-.2-.29-.29-.03-.04-.05-.19-.14-.29-.05-.05-.1-.09-.14-.14-.57-.59-.91-.92-1.57-1.43-.14-.1-.29-.19-.43-.29-.83-.6-1.69-1.2-2.57-1.72-.61-.36-1.21-.71-1.86-1-.97-.44-2.27-.93-3.29-1.29-3.21-1.13-6.62-1.87-10-2.29-1.07-.13-2.36-.25-3.43-.29-.12-.23-.48-.14-.71-.14-.7-.02-1.32-.12-2-.14-.24,0-.48,0-.71,0v-.14h-10.14v.14c-.4.02-.81-.03-1.21,0l-2.36.28c-1.25-.07-2.5.28-3.71.43-6.39.79-13.98,2.42-18.79,7-4.75,4.52-3.63,9.28-3.64,15.3,0,1.28,0,2.57,0,3.86,0,1.95,0,3.91,0,5.86.81,0,1.62,0,2.43,0,1.95.01,3.91,0,5.86,0,2.24,0,4.48,0,6.71,0,3.95,0,7.91,0,11.86,0,1.57,0,3.15,0,4.71,0,1.09,0,2.2-.05,3.29,0,.24.01.48,0,.72,0,0,.95,0,1.91,0,2.86,0,.19,0,.38,0,.57,0,.57,0,1.15,0,1.72-.57,0-1.15,0-1.72,0-.05,0-.1,0-.14,0-.14,0-.29,0-.43,0-.9,0-1.81,0-2.71,0-.43,0-.86,0-1.29,0-1.14,0-2.29,0-3.43,0-1.43,0-2.86,0-4.29,0-.19,0-.38,0-.57,0-2.52,0-5.05,0-7.57,0-2.66,0-5.34,0-8,0-1.38,0-2.76,0-4.14,0-1.81,0-3.62,0-5.43,0-2.33,0-4.67-.02-7,0-1.19,0-2.38-.03-3.57,0-.22-.24-.92-.24-1.14,0-.74.03-1.41.04-2.14.14-.65.09-1.12.28-1.71.43-8.04,1.99-12.49,7.5-15.29,15.01-.26.7-.48,1.24-.71,2-.45,1.5-.69,2.63-1,4.14-.31,1.52-.68,3.02-.86,4.57-.11.94-.07,1.93-.14,2.86-.25.16-.12.59-.14.86-.02.3-.14.61-.14.71,0,.14,0,.29,0,.43v8.43h.14c.03,1.11.18,2.2.29,3.29.24,2.46.49,4.87,1,7.29.39,1.82.96,3.54,1.57,5.29.05.16.06.35.14.57.42,1.15.89,2.19,1.43,3.29.34.7.61,1.19,1,1.86.2.33.36.67.57,1,.41.63.84,1.15,1.29,1.71.04.05.1.09.14.14.68.86,1.02,1.34,1.86,2.14.1.09.18.19.29.29.83.76,1.38,1.1,2.29,1.71,1.05.71,1.48,1.04,2.71,1.57,1.68.72,3.01,1.18,4.86,1.29h.91c-.12,0-.23,0-.35,0l1.55.02c1.19.03,3.26.08,4.43.05l7.18.08c.19-6.2-.25-12.54,0-18.72.02-.38-.03-.77,0-1.14.12-1.46.69-4.02,1.14-5.43ZM54.98,25.97c-.22.1-.46.15-.71.14-.08-.27-.21-.27-.29,0l-.71-.14c-.28-.31-.69-.5-1.25-.58-.53-.33-1.01-.47-1.47-.42l-.06-.38c-1.29-.95-2.19-2.39-2.48-3.97l-.32-.23.26-.35c-.27-3.79,2.95-6.79,6.69-6.54l.34-.26.19.31c1.36.27,2.63.99,3.59,1.99h.37c.84,1.02,1.44,2.79,1.43,4.13-.38.19-.63,1.29-.29,1.57l-.34.17c-.64,1.89-2.1,3.6-4.04,4.21l-.18.34c-.14-.38-.66-.44-.71,0ZM104.98,11.18c.06-.06.11-.12.17-.18-.05.06-.11.12-.17.18ZM104.89,11.28c-.24.26-.48.53-.73.79-.25.25-.5.5-.75.75.49-.51.99-1.02,1.47-1.54ZM33.97,98.72c-.02-.77-.01-1.52,0-2.28,0,.76,0,1.52,0,2.28Z"/>
  <path class="cls-2" d="M20.97,111.01h-.56c.19,0,.37,0,.56,0Z"/>
</svg>