<?xml version="1.0" encoding="UTF-8"?>
<svg id="Artwork" xmlns="http://www.w3.org/2000/svg" viewBox="0 0 150 150">
  <defs>
    <style>
      .cls-1 {
        fill: #00d8ff;
      }
    </style>
  </defs>
  <path class="cls-1" d="M115.88,49.62c8.61,2.49,19.45,6.78,25.33,13.82,13.59,16.28-12.25,29.19-24.99,32.67-.24.35,1.19,6.52,1.35,7.63,2.01,14.43.02,35.97-20.23,30.17-8.29-2.37-15.63-8.46-21.87-14.17-4.41,4.09-9.29,8.14-14.62,10.98-10.52,5.6-22.91,7.28-27.08-6.57-2.74-9.09-1.03-18.69.79-27.76-7.71-2.36-16-5.7-22.11-11.08-19.82-17.48,6.72-32.04,22.38-35.93-.76-2.65-1.31-5.38-1.7-8.12-2.13-14.92-.21-35.75,20.6-29.3,8.05,2.5,15.4,8.44,21.54,14.03,4.47-4.01,9.07-8.02,14.34-10.96,10.46-5.85,22.66-7.64,26.89,6.26,2.77,9.09,1.07,19.19-.6,28.32ZM79.57,30.01c-.16.21.79,1.35,1,1.6,3.65,4.41,7.57,8.59,10.68,13.43,6.07.62,12.13,1.41,18.05,2.85l.72-.24c1.64-7.4,2.94-16.23,1.04-23.67-.87-3.42-2.66-6.96-6.54-7.38-6.37-.69-15.85,5.72-20.6,9.67-1.45,1.21-2.8,2.8-4.36,3.73ZM40.55,47.9c6.15-1.26,12.37-2.28,18.64-2.85,3.71-5.1,7.56-10.11,11.93-14.67-2.32-2.24-4.76-4.4-7.38-6.29-4.82-3.5-17.38-11.24-22.31-5-3.7,4.69-3.3,14.31-2.6,19.96.37,2.99,1.04,5.93,1.72,8.86ZM83.29,44.42l-7.86-9.68c-.68-.14-7.46,8.44-8.3,9.68h16.16ZM62.46,94.83l11.75.56,13.64-.55c4.91-6.97,9.16-14.44,12.79-22.17-3.8-7.57-7.85-15.09-12.87-21.91-8.28-.62-16.64-.49-24.93-.08-.61.18-2.74,3.65-3.26,4.44-1.61,2.46-3.21,5.2-4.66,7.77-.76,1.35-5.19,9.32-5.05,10.14,3.66,7.57,8,14.78,12.6,21.8ZM54.7,51.63l-12.43,1.99,4.35,11.93,8.08-13.91ZM108.16,53.62l-12.43-1.99,8.08,13.91c.86-1.27,4.8-11.47,4.35-11.93ZM36.31,90.66c1.79-6.09,4.3-11.92,6.72-17.77l-6.84-17.74c-6.29,2.02-12.89,4.38-18.25,8.32-9.65,7.1-7.92,13.02,1.14,19.44,5.1,3.61,11.25,6.01,17.23,7.75ZM114.37,90.41c6.04-1.92,12.29-4.3,17.48-8,9.43-6.73,9.54-12.59,0-19.3-3.76-2.65-9.01-5.03-13.37-6.51-.75-.25-3.46-1.25-4-1.24-.31,0-.46.13-.56.42-1.7,5.79-4.12,11.32-6.48,16.85,2.45,5.87,5.16,11.65,6.94,17.78ZM54.7,94.14l-8.2-14.17-4.48,12.18,12.68,1.99ZM104.17,79.97l-.7.41-7.74,13.76,12.93-2.24-4.48-11.93ZM109.83,97.66c-3.22.82-6.51,1.41-9.79,1.91-2.91.44-5.93.51-8.77,1.17-3.59,4.9-7.15,9.86-11.33,14.29-.2.27-.12.46,0,.73s3.9,3.5,4.49,3.98c5.83,4.78,20.78,15.1,25.77,4.65,3.5-7.32,1.95-19.04-.04-26.67l-.33-.06ZM59.38,100.66c-6.21-.21-12.26-1.79-18.34-2.69-.28-.04-.41-.18-.63.15-.28.41-1.15,5.26-1.3,6.17-1.13,7.13-2.67,25.23,8.5,24.66,6.13-.31,14.18-5.42,18.89-9.2.63-.51,4.33-3.62,4.49-3.98.13-.27.19-.47,0-.74-4.29-4.43-8.08-9.33-11.62-14.37ZM83.54,101.1h-16.41s8.33,9.94,8.33,9.94l8.08-9.94Z"/>
  <circle class="cls-1" cx="75.21" cy="72.66" r="12.48"/>
</svg>