<?xml version="1.0" encoding="UTF-8"?>
<svg id="Artwork" xmlns="http://www.w3.org/2000/svg" viewBox="0 0 150 150">
  <defs>
    <style>
      .cls-1 {
        fill: #0072c6;
      }
    </style>
  </defs>
  <path class="cls-1" d="M6.2,23.53v101.33s75.09,13.51,75.09,13.51V10.37L6.2,23.53ZM47.38,100.28c-5.77,2.86-15.13,1.41-20.11-2.57v-11.25c.33-.09.24.09.32.18,2.02,2.29,4.26,4.16,7.24,5.06,4.23,1.27,9.75.59,9.27-5.02-.43-5-8.09-7.57-11.46-10.47-5.03-4.32-6.47-10.82-5.05-17.22,2-9.03,10.99-12.22,19.41-11.28,1.68.19,3.71.63,5.16,1.49v11.24c-3.38-3.17-12.58-5.3-15.39-.61-3.39,5.64,4.15,8.79,7.74,11.02,4.4,2.72,8.02,6.06,9.16,11.34,1.38,6.38.13,14.92-6.29,18.09Z"/>
  <path class="cls-1" d="M127.7,86.62c-2.74,7.73-8.51,14.13-15.62,18.11-.48.27-2.89,1.31-3,1.53,1.74,11.68-12.25,18.96-20.78,10.74l-.08-17.05c.09-.88,1.54-1.8,2.28-2.24,4.33-2.59,9.69-2.33,13.75.65.43.32,1.59,1.51,1.8,1.6.24.11.33.07.56,0,.5-.14,1.82-.89,2.36-1.19,5.18-2.84,9.53-7.57,11.91-12.99.21-.47.84-1.78.66-2.17-4.54-4.11-5.47-11.28-1.89-16.31.35-.5,1.93-2,1.89-2.37-.04-.4-1.11-2.65-1.37-3.15-2.4-4.67-6.93-9.32-11.62-11.71-.47-.24-2.11-1.07-2.5-.89-4.75,5.02-12.89,5.14-17.75.21l-.06-17.03c.09-.56,1.44-1.53,1.95-1.87,9.25-5.98,20.88,1.83,19.03,12.54,8.4,3.58,15.12,10.58,18.4,19.09.28.3.66,0,1,0,16.79-.56,17.79,22.25,2.95,24.45-1.34.2-2.51.09-3.85.04Z"/>
</svg>