<?xml version="1.0" encoding="UTF-8"?>
<svg id="Artwork" xmlns="http://www.w3.org/2000/svg" viewBox="0 0 148 150">
  <defs>
    <style>
      .cls-1 {
        fill: #da2e28;
      }

      .cls-2 {
        fill: #fff;
      }
    </style>
  </defs>
  <path class="cls-2" d="M91.65,70.12l-29.44,9.61-25.61,11.31-7.17,1.89c-1.83,1.74-3.74,3.49-5.81,5.27-2.27,1.96-4.38,3.74-6.01,5.03-1.8,1.42-4.47,4.09-5.83,5.79-2.03,2.54-3.63,5.23-4.32,7.3-1.22,3.74-.62,7.52,1.74,11.02,3.03,4.45,9.06,8.99,16.09,12.08,3.58,1.58,9.61,3.61,14.15,4.74,7.54,1.91,22.14,3.98,30.18,4.3,1.62.07,3.81.07,3.89,0,.18-.11,1.42-2.49,2.87-5.45,4.94-10.08,8.5-19.54,10.44-27.62,1.16-4.9,2.07-11.42,2.67-19.14.16-2.16.22-9.39.09-11.84-.2-4.01-.56-7.25-1.11-10.44-.09-.47-.11-.89-.07-.91.09-.07.36-.16,3.98-1.2l-.73-1.74h0s0,0,0,0h0ZM84.92,74.06c.27,0,.98,6.83,1.16,11.15.04.91.02,1.51-.02,1.51-.18,0-3.76-2.11-6.32-3.72-2.23-1.4-6.45-4.21-7.12-4.74-.22-.16-.2-.18,1.62-.8,3.09-1.05,10.44-3.41,10.68-3.41ZM69.93,79c.2,0,.71.29,1.94,1.05,4.58,2.87,10.82,6.34,13.49,7.5.82.36.91.22-.98,1.51-4.05,2.76-9.1,5.47-15.29,8.21-1.09.49-2,.87-2.02.87-.04,0,.09-.56.27-1.22,1.49-5.54,2.34-11.15,2.38-15.65q.02-2.23.22-2.29s-.02.02,0,.02h0ZM66.83,80.18c.13.13.04,5.12-.13,6.48-.4,3.25-1.02,6.28-2.05,9.68-.24.82-.47,1.51-.51,1.56-.09.11-3.14-2.87-4.14-4.03-1.74-2-3.09-4.01-4.09-5.96-.51-1-1.31-2.96-1.25-3.03.36-.24,12.08-4.78,12.17-4.7h0ZM52.28,85.9s.04,0,.07.02c.04.04.2.4.33.8.71,1.94,2.31,4.78,3.69,6.61,1.51,2,3.49,4.14,5.14,5.54.53.45,1.02.87,1.09.93.13.13.18.11-3.45,1.49-4.21,1.6-8.79,3.2-14.04,4.9-1.25.4-2.51.81-3.76,1.22-.2.07-.13-.04.44-.96,2.6-4.07,6.56-12.06,8.79-17.71.38-.98.76-1.96.82-2.18.09-.31.2-.42.49-.58.16-.04.31-.09.38-.09h0ZM47.83,87.75c.07.04-1.07,2.43-2.18,4.61-2.16,4.21-4.52,8.35-7.68,13.38-.53.87-1.05,1.67-1.11,1.76-.11.16-.16.11-.51-.58-.76-1.49-1.38-3.41-1.71-5.16-.33-1.74-.27-4.76.11-6.63.29-1.38.27-1.36.93-1.69,2.85-1.45,12.06-5.76,12.15-5.67h0ZM86.22,89.31v.93c0,4.96-.53,11.77-1.31,16.74-.13.87-.25,1.58-.27,1.6,0,0-.65-.18-1.4-.4-3.34-1.05-6.97-2.58-10.24-4.38-2.16-1.18-5.3-3.12-5.21-3.21.02-.02.96-.51,2.05-1.09,4.36-2.27,8.55-4.72,12.17-7.14,1.36-.91,3.4-2.38,3.85-2.78l.36-.27h0ZM31.02,95.89c.09,0,.07.18-.07.98-.09.58-.2,1.65-.24,2.38-.18,3.25.36,5.65,1.96,8.95.45.91.8,1.67.78,1.69-.16.13-14.89,4.45-19.52,5.72-1.38.38-2.58.71-2.67.73-.16.04-.18.02-.11-.36.51-3.27,3-7.54,6.48-11.15,2.31-2.4,4.16-3.81,7.32-5.61,2.27-1.29,5.76-3.23,6.03-3.32,0-.02.02-.02.04-.02h0ZM65.74,102.1s.56.27,1.2.65c4.76,2.76,11.39,5.32,17.05,6.63l.51.11-.71.4c-2.96,1.65-12.68,5.7-22.63,9.41-1.45.53-2.87,1.07-3.14,1.18-.27.11-.51.18-.51.16s.4-.8.91-1.76c2.78-5.21,5.59-11.55,7.01-15.96.18-.42.29-.8.31-.82h0ZM62.2,103.26s-.16.49-.38,1.02c-1.94,4.7-4.47,9.81-7.72,15.56-.82,1.47-1.51,2.65-1.54,2.65s-.69-.4-1.49-.89c-4.72-2.89-8.9-6.45-11.64-9.9l-.4-.49,2.02-.56c7.26-1.98,13.42-4.12,19.54-6.74.87-.36,1.58-.65,1.6-.65ZM84.19,110.94s.02.02,0,0c.02.51-1.11,5.1-2.05,8.41-.78,2.78-1.45,4.96-2.67,8.81-.53,1.69-1,3.09-1.02,3.09s-.16-.02-.29-.07c-6.61-1.2-12.53-2.87-18.09-5.1-1.56-.62-3.78-1.62-3.92-1.74-.04-.04,1.29-.67,2.98-1.4,10.13-4.43,20.63-9.46,24.23-11.62.42-.27.76-.4.82-.4h0ZM33.43,112.67s-2.78,4.12-6.74,9.66c-1.38,1.94-2.98,4.21-3.58,5.05-.6.85-1.51,2.18-2.03,2.98l-.94,1.45-1-.85c-1.18-.98-3.23-3.07-4.14-4.23-1.91-2.38-3.2-4.9-3.72-7.19-.24-1.07-.24-1.6-.02-1.67.33-.09,6.28-1.49,11.84-2.78,3.09-.71,6.68-1.56,7.97-1.87,1.29-.31,2.34-.56,2.36-.56h0ZM36.28,113.77l.71.8c3.21,3.58,6.48,6.23,10.44,8.55.71.4,1.25.76,1.2.78-.16.11-13.75,4.94-20.05,7.12-3.54,1.25-6.45,2.25-6.48,2.25s-.22-.13-.45-.29l-.4-.29.65-.93c2.09-3.03,4.72-6.34,10.44-13.24l3.94-4.74h0ZM54.04,126.47s1,.33,2.2.78c2.89,1.09,5.19,1.78,8.26,2.56,3.78.96,9.26,1.89,12.48,2.16.49.04.76.09.67.16-.16.09-3.43,1.18-5.83,1.94-3.83,1.2-15.51,4.65-25.04,7.39-1.76.51-3.27.93-3.36.96-.22.04-.96-.16-.96-.24,0-.04.53-.73,1.18-1.49,3.2-3.83,6.39-8.1,9.04-12.15.73-1.11,1.36-2.03,1.36-2.05h0ZM50.12,126.58s-1.56,2.56-4.32,6.92c-1.18,1.85-2.49,3.94-2.96,4.67-.45.71-1.11,1.83-1.49,2.45l-.65,1.14-.33-.09c-.8-.22-6.43-2.2-7.92-2.8-1.85-.73-3.76-1.62-5.19-2.38-1.78-.96-4.01-2.38-3.83-2.43.04-.02,3.09-.85,6.77-1.85,9.75-2.65,15.16-4.18,18.69-5.3.65-.2,1.2-.36,1.22-.33h0ZM77.83,133.08h.02c.09.22-3.52,10.24-4.83,13.4-.29.71-.4.89-.56.87-.38-.02-5.61-.76-8.79-1.22-5.54-.85-14.84-2.47-17.18-3l-.53-.11,3.32-.76c7.12-1.6,10.55-2.47,14.02-3.54,4.38-1.34,8.72-3,13.11-5.05.69-.31,1.27-.56,1.42-.58h0Z"/>
  <path class="cls-2" d="M61.29,1.49c-.49-.07-8.39,2.78-13.49,4.85-6.88,2.8-12.22,5.48-15.51,7.79-1.22.87-2.76,2.4-3,3-.09.22-.13.49-.13.76l2.98,2.83,7.1,2.27,16.89,3.03,19.32,3.32.2-1.67c-.07,0-.11-.02-.18-.02l-2.54-.4-.51-.91c-2.63-4.63-5.52-10.37-7.21-14.24-1.31-3-2.56-6.48-3.25-8.97-.38-1.51-.42-1.6-.67-1.62h0s0,0,0,0h0ZM60.93,2.63h.02s.11.65.2,1.38c.38,3.12,1.07,6.12,2.16,9.37.82,2.45.82,2.31-.13,2.03-2.27-.62-12.44-2.38-19.81-3.4-1.18-.16-2.18-.31-2.18-.33-.09-.09,5.32-2.92,7.7-4.03,3.05-1.4,11.42-4.9,12.04-5.01ZM39.48,12.6l.87.29c4.72,1.6,16.58,3.87,23.12,4.41.73.07,1.36.13,1.38.13.02.02-.6.36-1.4.73-3.16,1.58-6.63,3.52-9.04,5.01-.71.44-1.36.8-1.45.8s-.56-.09-1.05-.16l-.89-.13-2.23-2.18c-3.92-3.81-6.99-6.74-8.17-7.86l-1.16-1.05ZM38.59,13.29l3.14,3.92c1.71,2.16,3.45,4.27,3.83,4.74.38.47.69.85.67.87-.09.07-4.54-.8-6.9-1.34-2.43-.56-3.43-.82-4.92-1.29l-1.22-.4v-.31c.02-1.49,1.91-3.72,5.12-5.99l.29-.2ZM65.25,18.63c.09,0,.2.2.47.8.76,1.67,3.12,6.16,3.69,7.03.18.29.49.31-2.65-.2-7.54-1.22-9.97-1.62-9.97-1.67,0-.02.22-.18.51-.33,2.34-1.29,4.7-2.94,6.79-4.7.51-.42.98-.82,1.07-.89.02-.04.07-.07.09-.04Z"/>
  <path class="cls-1" d="M29.44,16.82s-.49.78-.02,1.94c.29.71,1.14,1.58,2.09,2.47,0,0,9.9,9.66,11.11,11.04,5.47,6.32,7.86,12.55,8.08,21.14.13,5.52-.91,10.37-3.52,16-4.63,10.1-14.4,21.25-29.47,33.63l2.2-.73c1.42-1.07,3.36-2.2,7.9-4.7,10.48-5.74,22.28-11.02,36.74-16.45,20.83-7.83,55.08-17,74.57-19.98l2.03-.31-.31-.49c-1.78-2.76-3-4.47-4.47-6.3-4.27-5.3-9.46-9.59-15.8-13.15-8.72-4.87-20.01-8.68-34.29-11.51-2.69-.53-8.61-1.56-13.42-2.29-10.19-1.58-16.78-2.67-24.03-3.92-2.6-.45-6.5-1.11-9.08-1.67-1.34-.29-3.89-.89-5.9-1.58-1.6-.62-3.92-1.25-4.41-3.14h0ZM35.19,22.39s.38.11.85.27c.85.29,1.94.62,3.23.98.98.27,1.96.53,2.94.78,1.34.33,2.45.65,2.47.65.16.16,2.4,7.34,3.16,10.1.29,1.05.51,1.94.49,1.94-.02.02-.27-.36-.56-.87-2.6-4.58-6.72-9.24-11.48-12.97-.62-.44-1.09-.85-1.09-.87ZM46.14,25.41c.11,0,.6.07,1.2.2,3.78.85,10.57,2.14,14.91,2.87.73.11,1.31.24,1.31.29s-.27.2-.6.38c-.73.38-3.69,2.14-4.67,2.8-2.47,1.65-4.7,3.43-6.3,5.03-.65.65-1.2,1.18-1.2,1.18,0,0-.13-.38-.24-.85-.8-3.09-2.47-7.68-3.98-10.9-.24-.51-.45-.98-.45-1.02,0,.04,0,.02.02.02h0ZM65.41,29.09c.13.04.36.8.8,2.47.82,3.23,1.2,6.83,1.07,10.19-.04.93-.09,1.8-.13,1.91l-.07.22-1.16-.38c-2.38-.76-6.25-1.89-9.57-2.83-1.89-.51-3.43-.98-3.43-1.02,0-.13,2.76-2.89,3.94-3.94,2.25-1.98,8.34-6.7,8.55-6.63h0ZM66.94,29.31c.07-.07,9.21,1.51,13.38,2.31,3.09.6,7.59,1.54,7.86,1.65.13.04-.33.31-1.83.98-5.88,2.65-10.24,5.03-14.58,7.92-1.14.76-2.09,1.38-2.11,1.38s-.04-.65-.04-1.42c0-4.23-.85-8.5-2.4-12.11-.16-.36-.29-.69-.27-.71ZM90.6,33.98c.07.07-.22,1.87-.49,2.94-.8,3.32-2.96,8.23-5.61,12.86-.47.82-.89,1.49-.94,1.51-.04.02-.64-.31-1.34-.71-2.58-1.51-5.52-2.94-8.72-4.27-.89-.38-1.67-.69-1.69-.73-.16-.13,7.01-4.87,10.79-7.14,3-1.82,7.9-4.54,7.99-4.45ZM92.29,34.25c.2,0,4.25,1.11,6.36,1.74,5.23,1.56,11.24,3.76,15.16,5.54l1.62.73-1.13.27c-9.57,2.2-17.76,4.74-25.66,7.94-.65.27-1.22.49-1.27.49s.18-.51.47-1.14c2.38-5.05,3.92-10.33,4.29-14.82.02-.42.09-.76.16-.76h0ZM51.97,43.51c.07-.07,3.16.67,4.83,1.13,2.54.71,7.92,2.51,7.92,2.65,0,.02-.6.53-1.31,1.16-2.92,2.43-5.72,4.98-9.08,8.23-1,.96-1.85,1.74-1.89,1.74s-.07-.13-.04-.31c.51-3.74.4-8.55-.31-13.42-.07-.62-.13-1.16-.11-1.18ZM116.97,43.57s-1.42,2.36-2.36,3.67c-1.34,1.91-3.29,4.45-7.72,10.01-2.34,2.94-4.96,6.25-5.83,7.37-.89,1.11-1.62,2.05-1.65,2.05s-.31-.4-.62-.89c-2.49-3.74-5.47-7.01-9.01-9.95-.67-.56-1.4-1.16-1.65-1.34-.24-.18-.45-.36-.45-.38,0-.07,3.78-1.69,6.65-2.85,5.03-2.05,11.88-4.5,17.02-6.08,2.69-.85,5.56-1.67,5.61-1.62h0ZM118.68,44.02c.09-.02.62.24,1.27.62,5.41,3.09,10.7,7.08,14.89,11.17,1.18,1.16,4.09,4.18,4.05,4.21,0,0-1.02.09-2.23.18-9.37.71-21.36,2.69-32.89,5.47-.78.18-1.47.33-1.51.33s.82-.87,1.91-1.91c6.77-6.52,9.86-10.64,13.51-17.98.51-1.09.96-2.02,1-2.09t0,0h0ZM69.12,49.09c.31.07,3.2,1.42,5.39,2.51,2,1,5.01,2.6,5.16,2.74.02.02-1.05.58-2.36,1.22-4.18,2.09-7.77,4.07-11.51,6.34-1.07.65-1.96,1.18-1.98,1.18-.09,0-.07-.09.53-1.18,2-3.65,3.61-8.01,4.52-12.26.09-.33.18-.56.24-.56h0ZM66.23,49.63c.07.07-.69,2.8-1.16,4.3-.91,2.83-2.45,6.36-3.94,9.04-.36.62-.89,1.54-1.18,2.05l-.56.89-1.25-1.2c-1.45-1.4-2.63-2.27-4.14-3.05-.6-.31-1.07-.58-1.07-.62,0-.18,3.81-3.63,6.72-6.12,2.09-1.8,6.5-5.34,6.56-5.27h0ZM83.92,56.9l1.09.71c2.49,1.62,5.43,3.78,7.68,5.67,1.27,1.05,3.72,3.25,4.21,3.78l.27.29-1.8.51c-10.19,2.83-18.07,5.34-27.26,8.72-1.02.38-1.89.69-1.96.69-.13,0-.24.11,2.05-2,5.88-5.41,11.08-11.37,14.95-17.18l.78-1.2h0ZM79.27,58.06s-3,4.34-4.83,6.77c-2.18,2.89-6.05,7.74-8.72,10.9-1.11,1.31-2.07,2.4-2.11,2.43-.07.02-.09-.31-.09-.82,0-2.69-.69-5.56-1.89-8.01-.51-1.02-.6-1.27-.49-1.38.42-.38,6.9-4.07,10.99-6.28,2.76-1.47,7.08-3.65,7.14-3.61h0ZM51.14,64.96c.07,0,.58.27,1.16.58,1.42.78,2.69,1.65,3.83,2.58.04.04-.53.51-1.29,1.07-2.11,1.51-5.32,3.94-7.19,5.43-1.96,1.56-2.03,1.6-1.8,1.27,1.47-2.25,2.2-3.52,2.98-5.14.69-1.45,1.38-3.16,1.87-4.65.18-.65.4-1.14.44-1.14h0ZM58.64,70.84c.11-.02.24.18.85,1.07,1.27,1.89,2.25,4.43,2.49,6.48l.04.45-3.05,1.18c-5.45,2.11-10.48,4.21-13.89,5.76-.96.45-2.63,1.25-3.72,1.78-1.09.56-1.98.98-1.98.96s.69-.53,1.54-1.16c6.65-4.83,12.42-10.13,16.74-15.42.47-.56.89-1.07.93-1.09h.04s0,0,0,0ZM55.19,71.68c.09.09-2.45,2.96-4.18,4.72-4.3,4.38-8.55,7.81-13.82,11.15-.67.42-1.27.8-1.34.85-.16.09.04-.13,2.36-2.65,1.47-1.58,2.58-2.92,3.85-4.56.85-1.09,1-1.25,2.23-2.11,3.27-2.36,10.82-7.48,10.9-7.39Z"/>
</svg>