<?xml version="1.0" encoding="UTF-8"?>
<svg id="Artwork" xmlns="http://www.w3.org/2000/svg" viewBox="0 0 148 150">
  <defs>
    <style>
      .cls-1 {
        fill: #8e75ff;
      }

      .cls-2 {
        fill: #d0c7ff;
      }
    </style>
  </defs>
  <path class="cls-1" d="M147.58,101.51l-.65.3h-48.37l-.19-.3c-.35-15.76-.33-31.53-.3-47.3-.09-1.83-1.07-3.17-2.97-3.28-15.87.03-31.74.06-47.6-.3l-.3-.15V1.93l.3-.65h97.12c1.57.05,2.85,1.23,2.96,2.8v97.43Z"/>
  <path class="cls-2" d="M98.38,101.51c.14.03.13.08,0,.15-.25-.17-.54-.15-.83-.16-15.63-.55-31.58.42-47.24.01-1.53-.1-2.71-1.29-2.81-2.81.01-16.02,0-32.05,0-48.07,15.87,0,31.74,0,47.61,0,2.17.19,3.1,1.49,3.27,3.57,0,15.77-.01,31.54,0,47.31Z"/>
  <path class="cls-2" d="M47.51,50.64c-15.37,0-30.78.09-46.14-.1-.89-.28-1.11-1.2-.87-2.03C16.09,32.71,31.8,16.98,47.51,1.28v49.36Z"/>
  <path class="cls-2" d="M147.58,101.51l-46.77,46.86c-.87.75-2.33.25-2.44-.91,0-15.26,0-30.53,0-45.79,0-.05,0-.1,0-.15h49.2Z"/>
</svg>