<?xml version="1.0" encoding="UTF-8"?>
<svg id="Artwork" xmlns="http://www.w3.org/2000/svg" viewBox="0 0 150 150">
  <defs>
    <style>
      .cls-1 {
        fill: #7b80be;
      }

      .cls-2 {
        fill: #fff;
      }
    </style>
  </defs>
  <g>
    <path class="cls-1" d="M87.53,65.06l.83.25.3.09c1.91.78,3.18,2.58,3.33,4.63-.26,7.59.34,15.39,0,22.95-.15,3.41-1.23,7.48-3.03,10.39-1.78,2.88-4.23,5.36-7.09,7.2-2.41,1.55-5.12,2.66-7.96,3.15-.31,0-.7.03-.96.16h-.08c-.2.01-.5-.07-.63.08h-.24c-.25,0-.62-.07-.8.08h-2.39c-.18-.15-.55-.08-.8-.08h-.23c-.14-.15-.44-.08-.64-.08h-.08c-.09-.14-.33-.07-.48-.08h-.08c-.07-.13-.27-.08-.4-.08-8.61-1.23-16.23-8.82-17.68-17.36,0-.13.05-.33-.08-.4,0-.03,0-.05,0-.08-.03-.28-.01-.63-.16-.88,0-.05.01-.1,0-.16,0-.17.06-.44-.08-.55v-.48h19.32c1.92-.3,3.38-1.83,3.54-3.78v-24.97c5.39,0,10.81-.08,16.17-.08.14,0,.4.08.4.08Z"/>
    <path class="cls-1" d="M83.85,47.61v2.43c-.15.11-.08.38-.09.56,0,.03.01.06,0,.08-.13.07-.07.28-.08.41-1.03,5.51-5.81,9.93-11.46,10.25l.06-.51c.15-1.6-.03-3.22-1.23-4.41-.13-.14-.38-.27-.53-.41v-.24c-1.28-1.46-2.29-1.92-4.23-2.01-1.99-.09-4.2-.04-6.19.07l-.32.16c.04-.12-.03-.16-.08-.24-.01-.02-.03-.04-.04-.07-.41-.72-.64-1.78-.76-2.59-.02-.16.06-.4-.08-.49-.01-.03,0-.05,0-.08-.09-.91-.09-1.82-.09-2.74v-.09c.15-.11.08-.38.09-.56,0-.05-.01-.11,0-.16.13-.07.07-.28.08-.41.38-2.61,1.57-4.68,3.39-6.54l.24-.24c1.88-1.81,4.01-2.97,6.62-3.39.13,0,.33.05.4-.08.06-.01.11.01.17,0,.2-.06.42-.09.64-.08h.16c.51-.02,1.03,0,1.54,0h.16c.13.15.44.08.64.08h.17l.88.16c2.11.53,4.21,1.51,5.82,2.99.08.08.12.26.32.24.12.14.19.2.32.32-.02.21.17.24.25.33,1.56,1.71,2.56,3.88,3.06,6.13.01.13-.05.34.08.41.01.05,0,.11,0,.16.01.18-.06.45.09.56Z"/>
    <path class="cls-2" d="M57.66,63.24v3.36s-.11.12-.12.12h-5.43v16.25h-3.75v-16.25h-5.55v-3.6h14.73s.12.11.12.12Z"/>
  </g>
  <path class="cls-2" d="M150,71.95s-.07-.04-.08-.08c-.14-.34-.07-.85-.08-1.25.07-.03.07-.06,0-.07-.14-.3-.07-.75-.07-1.1.15-.04.15-.11,0-.15-.15-.18-.08-.54-.08-.78.15-.05.15-.12,0-.16-.14-.16-.08-.48-.08-.7.15-.05.15-.12,0-.16-.14-.13-.08-.43-.08-.63.15-.07.15-.16,0-.23-.13-.08-.07-.32-.08-.47.07-.04.07-.06,0-.08-.13-.1-.07-.37-.07-.54.14-.05.14-.12,0-.16-.14-.08-.08-.32-.08-.47.06-.04.07-.06,0-.08-.15-.08-.06-.32-.08-.47.15-.04.15-.11,0-.15-.01-.06-.07-.22-.08-.39.07-.05.07-.07,0-.08-.14-.09-.06-.33-.08-.47.07-.03.07-.06,0-.08-.01-.07-.05-.25-.08-.39.2-.18.17-.43-.07-.54l-.08-.4c.17-.36.06-.89-.24-1.17-.31.04-.08-.17-.07-.23.06-.03.13-.08.15-.15.03-.14-.15-1.19-.39-1.18-.21.04-.21-.08-.08-.23l.02-.43c-5.92-28.71-30.16-51.73-58.81-57.18l-.43.03c-.11-.06-.24-.09-.39-.08-.11-.24-.28-.26-.47-.08-.12-.06-.25-.08-.39-.08-.11-.24-.36-.27-.54-.07-.14-.03-.31-.07-.39-.08-.04-.07-.06-.07-.08,0-.14-.02-.38.06-.47-.08-.03-.07-.05-.07-.08,0-.17,0-.33-.07-.39-.08-.04-.15-.11-.15-.15,0-.15-.02-.39.07-.47-.08-.04-.06-.07-.07-.08,0-.15,0-.38.06-.47-.08-.04-.14-.11-.14-.16,0-.17,0-.44.06-.54-.07-.04-.07-.07-.07-.08,0-.15-.01-.39.05-.47-.08-.07-.15-.16-.15-.24,0-.19,0-.49.06-.62-.08-.04-.15-.11-.15-.16,0-.17,0-.44.06-.54-.08-.1-.15-.22-.15-.32,0-.24,0-.6.07-.78-.08-.04-.15-.11-.15-.15,0-.32,0-.76.07-1.02-.07-.05-.12-.11-.12-.16,0-.41-.01-.86.06-1.25-.08-.05-.02-.11-.02-.15-.08h-.08c-.08.13-.32.08-.47.08h-.47c-.19,0-.49.06-.62-.08h-2.66c-.13.14-.43.08-.62.08h-.47c-.15,0-.39.05-.47-.08h-.23v.08c-.34.14-.86.07-1.26.08-.04-.12-.1-.12-.15,0-.26.14-.7.07-1.02.07-.04-.15-.11-.15-.15,0-.18.15-.54.08-.78.08-.1-.15-.22-.15-.32,0-.1.14-.37.08-.54.08-.05-.15-.12-.15-.16,0-.13.14-.43.08-.63.08-.07-.15-.16-.15-.23,0-.08.13-.32.07-.47.08-.04-.07-.06-.07-.08,0-.1.13-.37.07-.54.07-.05-.14-.12-.14-.16,0-.09.14-.32.08-.47.08-.04-.06-.06-.07-.08,0-.08.14-.32.08-.47.08-.06-.15-.13-.16-.15,0-.07.13-.27.07-.39.08-.03-.07-.06-.07-.08,0-.09.13-.32.07-.47.08-.02-.07-.05-.07-.08,0-.06.12-.26.07-.39.08-.18-.2-.42-.17-.54.07-.07.13-.27.08-.4.08-.19-.16-.33-.14-.46.08-.07.13-.27.07-.39.08l-.43-.03C31.16,6.61,6.53,31.11,1.3,60.59l.03.43c-.01.12.05.32-.08.39-.22.13-.24.27-.08.46,0,.13.05.33-.08.4-.24.12-.27.36-.07.54-.01.13.04.33-.08.39-.07.05-.07.07,0,.08-.01.15.05.38-.08.47-.07.03-.07.06,0,.08-.01.12.05.32-.08.39-.15.06-.16.14,0,.15,0,.15.05.39-.08.47-.06.04-.07.07,0,.08,0,.15.06.39-.08.47-.14.04-.14.11,0,.16,0,.17.06.44-.07.54-.07.04-.07.07,0,.08-.01.15.05.39-.08.47-.15.07-.15.16,0,.23,0,.2.06.5-.08.63-.15.04-.15.11,0,.16,0,.17.06.44-.08.54-.15.1-.15.22,0,.32,0,.24.07.6-.08.78-.15.04-.15.11,0,.15,0,.32.07.76-.07,1.02-.12.05-.12.11,0,.15,0,.4.06.91-.08,1.25h-.08v.24c.13.08.08.32.08.47v.47c0,.19.06.49-.08.62v2.66c.14.13.08.43.08.62v.47c0,.15.05.39-.08.47v.23h.08c.17.34.03.86.08,1.25-.12.07-.13.14,0,.16.14.26.07.7.07,1.02-.15.04-.15.11,0,.15.15.18.08.54.08.78-.15.1-.15.22,0,.32.14.1.08.37.08.54-.15.05-.15.12,0,.16.14.13.08.43.08.62-.15.08-.15.17,0,.24.13.08.07.32.08.47-.07.04-.07.06,0,.08.13.1.07.37.07.54-.14.05-.14.12,0,.16.14.08.08.32.08.47-.06.04-.07.06,0,.08.15.08.06.32.08.47-.15.04-.15.11,0,.15.01.06.07.22.08.39-.07.04-.07.07,0,.08.14.09.06.33.08.47-.07.03-.07.06,0,.08,0,.05.06.25.08.39-.19.2-.16.4.07.54,0,.14.02.27.08.39-.16.2-.14.34.08.47-.01.14.02.27.08.39l-.03.42c5.2,29.42,29.89,54.08,59.3,59.3l.42-.03c.12.06.25.09.39.08.13.22.27.24.46.08.13.05.26.08.4.08.14.23.34.26.54.07.14.02.34.08.39.08.04.07.06.07.08,0,.14.02.38-.06.47.08.03.07.05.07.08,0,.17,0,.33.07.39.08.04.15.11.15.15,0,.15.02.39-.07.47.08.04.06.07.07.08,0,.15,0,.38-.06.47.08.04.14.11.14.16,0,.17,0,.44-.06.54.07.04.07.07.07.08,0,.15.01.39-.05.47.08.07.15.16.15.23,0,.2,0,.5-.06.63.08.04.15.11.15.16,0,.17,0,.44-.06.54.08.1.15.22.15.32,0,.24,0,.6-.07.78.08.04.15.11.14.15,0,.32,0,.76-.07,1.02.07.05.12.11.12.15,0,.4.01.91-.06,1.26.08v.08h.23c.08-.13.32-.08.47-.08h.47c.19,0,.49-.06.62.08h2.66c.13-.14.43-.08.62-.08h.47c.13,0,.33-.04.39.08h.16c.02-.08.09-.07.15-.08.35-.14.86-.07,1.25-.08.05.12.11.12.16,0,.26-.14.7-.07,1.02-.07.04.14.11.14.15,0,.18-.15.54-.08.78-.08.1.15.22.15.32,0,.1-.14.37-.08.54-.08.05.15.12.15.16,0,.13-.14.43-.08.62-.08.08.15.17.15.24,0,.08-.13.32-.07.47-.08.04.07.06.07.08,0,.1-.13.37-.07.54-.07.05.14.12.14.16,0,.08-.14.32-.08.47-.08.04.06.06.07.08,0,.08-.15.32-.06.47-.08.04.15.11.15.15,0,.06-.01.22-.07.39-.08.04.07.07.07.08,0,.09-.14.33-.06.47-.08.03.07.06.07.08,0,.05,0,.25-.06.39-.08.2.19.4.16.54-.07.14,0,.27-.02.39-.08.18.12.35.1.47-.08.14.01.27-.02.39-.08l.43.03c29.89-5.37,54.23-30.33,59.45-60.15l-.03-.43c.06-.12.08-.25.08-.39.24-.11.27-.36.07-.54.03-.14.07-.31.08-.39.07-.04.07-.06,0-.08.02-.14-.06-.38.08-.47.07-.03.07-.05,0-.08.01-.17.07-.33.08-.39.15-.04.15-.11,0-.15.02-.15-.07-.39.08-.47.06-.04.07-.07,0-.08,0-.15-.06-.38.08-.47.14-.04.14-.11,0-.16,0-.17-.06-.44.07-.54.07-.04.07-.07,0-.08.01-.15-.05-.39.08-.47.15-.07.15-.16,0-.24,0-.19-.06-.49.08-.62.15-.04.15-.11,0-.16,0-.22-.06-.54.08-.7.15-.04.15-.11,0-.16,0-.24-.07-.6.08-.78.15-.04.15-.11,0-.15,0-.35-.07-.8.07-1.1.07-.03.07-.06,0-.08.05-.39-.09-.89.08-1.25h.08v-.23c-.13-.08-.08-.32-.08-.47v-.47c0-.19-.06-.49.08-.62v-2.66c-.14-.13-.08-.43-.08-.62v-.47c0-.15-.05-.39.08-.47v-.16ZM91.17,51.56v-.15c.02-.22.06-.31.08-.47.5-3.39,3.33-6.26,6.64-7.03.15-.04.24-.06.39-.08.03-.01.05,0,.08,0,.3-.17.68-.16,1.02-.16.07,0,.15.01.23,0,.2-.13.68-.13.86,0h.15c.49.02.64.05,1.1.16,3.57.82,6.16,3.28,7.03,6.87.04.16.05.22.08.39v.08c.13.09.07.32.08.47v.08c.13.5.13,1.21,0,1.72v.08c0,.14.05.38-.08.46v.08c-.02.19-.04.24-.08.39-.18.77-.62,1.98-1.02,2.66.14.27-.11.82-.46.7-.02.03-.06.05-.08.08-.11.33.01.71-.47.63-.16.18-.52.53-.7.7-.1.28-.05.36-.4.31-.02.03-.05.06-.07.08.01.24-.09.4-.32.23-.4.3-1.02.65-1.48.86-.09.41-.23.27-.31.2-.04.02-.09.05-.13.07-.12.14-.32.34-.58.12-.11.04-.2.05-.31.08-.08.08-.16.17-.27.2-.29.07-.39.02-.64.19-.31.21-.2-.06-.37-.08-.48-.07-1.19.27-1.69,0-.02.01-.05,0-.07,0-.16.01-.37-.03-.5.01-.06.01-.06.15-.09.15-.24.04-.26-.25-.51-.31-.16-.02-.28-.06-.39-.08-.18-.03-.42.05-.55-.16-.66-.15-1.06-.37-1.64-.7-.26.12-.41.09-.39-.23-.13-.09-.24-.13-.39-.24-.24.12-.33.04-.31-.23-1.73-1.29-3.04-3.32-3.36-5.47-.02-.16-.06-.26-.08-.47v-.16c-.14-.48-.08-1.09-.08-1.6,0-.13-.05-.35.08-.43ZM111.88,87.23c-.02.34-.08.8-.16,1.13v.16c-.02.3.01.66-.16.93,0,.03.01.06,0,.08-.04.32-.08.48-.15.78-.81,3.16-2.12,5.45-4.22,7.89-.37.43-.45.5-.86.86-2.61,2.27-5.35,3.84-8.83,4.38-.16.02-.26.06-.47.08-.05,0-.1-.01-.16,0-.08.13-.32.07-.46.07h-.08c-.32.15-.8.08-1.17.08s-.73.01-1.1,0c-.57-.01-1.17.05-1.72-.15-.05-.01-.1,0-.15,0-.41-.04-.87-.06-1.25-.24-.43-.08-.85-.14-1.25-.31-1.92,3.11-4.64,5.75-7.82,7.6-2.14,1.25-4.49,2.13-6.95,2.56-.33.05-.58.13-.94.15h-.07c-.13.14-.43.08-.63.08h-.23c-.18.14-.54.08-.78.08h-.16c-.48.14-1.09.08-1.6.08-.14,0-.35.05-.43-.08h-.16c-.24,0-.6.06-.78-.08h-.23c-.2,0-.5.06-.63-.08h-.08c-.14,0-.38.05-.47-.08-.02,0-.05.01-.07,0-.19-.01-.28-.06-.39-.07-8.45-1.21-15.93-8.66-17.35-17.04-.02-.12-.05-.22-.08-.39,0-.02,0-.05,0-.08-.16-.24-.13-.58-.15-.85-.01-.06,0-.11,0-.16-.14-.11-.08-.38-.08-.55v-.08c-.04-.05-.06-.11-.07-.17-.04-.19,0-.43-.01-.61,0-.13,0-.75-.12-.78h-13.71c-.18.07-.34-.05-.47-.08-1.56-.29-2.83-1.56-3.12-3.12-.02-.12-.15-.28-.08-.47v-31.33c-.07-.18.06-.35.08-.47.31-1.76,1.7-2.91,3.44-3.2.08-.13.29-.08.43-.08,4.77-.06,9.61.04,14.43.08h4.45c1.57-.01,3.15-.03,4.71-.08.03,0,.06,0,.09.01.08,0,.15.01.18-.04,0-.04-.01-.07,0-.12-.43-.71-.66-1.77-.78-2.58-.02-.15-.06-.28-.08-.47,0-.03.01-.05,0-.08-.2-.72-.16-1.49-.15-2.23,0-.13-.05-.34.08-.43v-.07c0-.18-.06-.44.07-.55.01-.05,0-.11,0-.16.02-.18.07-.27.08-.39.37-2.53,1.52-4.53,3.28-6.33l.24-.23c1.82-1.75,3.88-2.87,6.4-3.28.12-.02.23-.06.39-.08.06-.01.11,0,.16,0,.14-.16.43-.05.63-.08h.15c.42-.13,1.06-.13,1.49,0h.15c.2,0,.5-.06.63.08h.15c.38.02.52.07.86.16,2.04.51,4.08,1.46,5.63,2.89.19-.01.22.13.31.23.12.13.19.2.31.31.1.1.24.12.24.32,1.52,1.65,2.48,3.75,2.97,5.93.03.16.06.2.07.39.01.06,0,.11,0,.16.14.11.08.38.08.55v.08c.14.51.09,1.14.08,1.68,0,.13.05.34-.08.43v.15c0,.17.06.44-.08.55,0,.02.01.05,0,.08-.02.18-.05.25-.07.39-.98,5.22-5.44,9.44-10.77,9.89-.11.02-.22.02-.33.03-.38.02-.78-.02-1.17,0,.01,1.45,0,3,0,4.45h17.58c6.5-.02,13.03-.08,19.53,0,.15,0,.38-.05.47.08,1.72.23,3.21,1.89,3.44,3.59.01,1.58.02,3.16.03,4.74.07,4.5.24,9.08.05,13.51Z"/>
</svg>