<?xml version="1.0" encoding="UTF-8"?>
<svg id="Artwork" xmlns="http://www.w3.org/2000/svg" viewBox="0 0 148 150">
  <defs>
    <style>
      .cls-1 {
        fill: #197abf;
      }
    </style>
  </defs>
  <path class="cls-1" d="M149.05,0v150.1H-1.05V0h150.1ZM88.47,123.43c-.2.33.54,1.34.76,1.71,12.17,20.55,53.77,15.64,46.63-12.72-2.69-10.69-13.6-13.71-22.33-17.93-4.01-1.93-8.64-4.21-7.26-9.6,1.33-5.21,8.69-5.56,12.27-2.62,1.37,1.13,2.25,2.67,3.49,3.9,3.48-2.31,7.16-4.39,10.36-7.07-3.23-5.32-8.07-9.29-14.35-10.34-13.91-2.3-26.31,4.75-25.43,19.96.59,10.07,7.48,14.5,15.67,18.46,3.86,1.86,13.68,4.96,14.47,9.6,1.18,6.99-5.95,9.16-11.59,8.53-3.75-.42-6.69-2.33-9.15-5.08-.48-.53-2.24-3.22-2.69-3.15l-10.85,6.34ZM84.5,69.36h-52.3s-.22,12.03-.22,12.03h19.47v55.36h13.57v-55.36h19.47v-12.03Z"/>
</svg>